<svg xmlns="http://www.w3.org/2000/svg" version="1.1" xmlns:xlink="http://www.w3.org/1999/xlink" width="512" height="512" x="0" y="0" viewBox="0 0 512 512" style="enable-background:new 0 0 512 512" xml:space="preserve" class=""><g><path d="M488.727 325.818H23.273C10.473 325.818 0 315.345 0 302.545v-256c0-12.8 10.473-23.273 23.273-23.273h465.455c12.8 0 23.273 10.473 23.273 23.273v256c-.001 12.8-10.474 23.273-23.274 23.273z" style="" fill="#0e9347" data-original="#0e9347" class=""></path><path d="M430.545 232.727c-26.764 0-51.2 12.8-65.164 33.745C353.745 260.655 340.945 256 325.818 256c-40.727 0-74.473 30.255-80.291 69.818h243.2c11.636 0 20.945-8.145 23.273-19.782-4.655-40.727-39.564-73.309-81.455-73.309z" style="" fill="#0d8944" data-original="#0d8944"></path><path d="M442.182 302.545H69.818c0-25.6-20.945-46.545-46.545-46.545V93.091c25.6 0 46.545-20.945 46.545-46.545h372.364c0 25.6 20.945 46.545 46.545 46.545V256c-25.6 0-46.545 20.945-46.545 46.545z" style="" fill="#3bb54a" data-original="#3bb54a"></path><path d="M430.545 232.727c-26.764 0-51.2 12.8-65.164 33.745C353.745 260.655 340.945 256 325.818 256c-32.582 0-60.509 18.618-73.309 46.545h189.673c0-25.6 19.782-45.382 45.382-46.545-15.128-13.964-34.909-23.273-57.019-23.273z" style="" fill="#0e9347" data-original="#0e9347" class=""></path><ellipse cx="256" cy="174.545" rx="93.091" ry="104.727" style="" fill="#0e9347" data-original="#0e9347" class=""></ellipse><circle cx="116.364" cy="174.545" r="23.273" style="" fill="#0e9347" data-original="#0e9347" class=""></circle><circle cx="395.636" cy="174.545" r="23.273" style="" fill="#0e9347" data-original="#0e9347" class=""></circle><path d="M267.636 162.909h-23.273c-6.982 0-11.636-4.655-11.636-11.636 0-6.982 4.655-11.636 11.636-11.636h34.909c6.982 0 11.636-4.655 11.636-11.636 0-6.982-4.655-11.636-11.636-11.636h-11.636c0-6.982-4.655-11.636-11.636-11.636-6.982 0-11.636 4.655-11.636 11.636-19.782 0-34.909 15.127-34.909 34.909s15.127 34.909 34.909 34.909h23.273c6.982 0 11.636 4.655 11.636 11.636 0 6.982-4.655 11.636-11.636 11.636h-34.909c-6.982 0-11.636 4.655-11.636 11.636 0 6.982 4.655 11.636 11.636 11.636h11.636c0 6.982 4.655 11.636 11.636 11.636 6.982 0 11.636-4.655 11.636-11.636 19.782 0 34.909-15.127 34.909-34.909s-15.127-34.909-34.909-34.909z" style="" fill="#89c763" data-original="#89c763"></path><circle cx="302.545" cy="337.455" r="81.455" style="" fill="#ffca5d" data-original="#ffca5d"></circle><circle cx="407.273" cy="314.182" r="81.455" style="" fill="#f6b545" data-original="#f6b545"></circle><path d="M407.273 232.727c-45.382 0-81.455 36.073-81.455 81.455s36.073 81.455 81.455 81.455 81.455-36.073 81.455-81.455-36.073-81.455-81.455-81.455zm0 139.637c-32.582 0-58.182-25.6-58.182-58.182S374.691 256 407.273 256s58.182 25.6 58.182 58.182-25.6 58.182-58.182 58.182z" style="" fill="#ffcb5b" data-original="#ffcb5b"></path><path d="M407.273 394.473c45.382 1.164 81.455-36.073 81.455-80.291h-1.164c-5.818 0-10.473 4.655-11.636 10.473-2.327 16.291-10.473 31.418-22.109 41.891-9.309 9.309-22.109 15.127-36.073 17.454a10.43 10.43 0 0 0-10.473 10.473z" style="" fill="#f6b545" data-original="#f6b545"></path><path d="M407.273 233.891c-45.382-1.164-81.455 36.073-81.455 80.291h1.164c5.818 0 10.473-4.655 11.636-10.473 2.327-16.291 10.473-31.418 22.109-41.891 9.309-9.309 22.109-15.127 36.073-17.455a10.428 10.428 0 0 0 10.473-10.472z" style="" fill="#ffe27a" data-original="#ffe27a"></path><path d="M357.236 322.327c0-32.582 25.6-58.182 58.182-58.182 13.964 0 26.764 4.655 37.236 13.964C441.018 264.145 425.891 256 407.273 256c-32.582 0-58.182 25.6-58.182 58.182 0 18.618 8.145 33.745 20.945 44.218-8.145-9.309-12.8-22.109-12.8-36.073z" style="" fill="#f19920" data-original="#f19920"></path><path d="M442.182 350.255c-1.164 0-2.327 0-3.491-1.164-2.327-2.327-2.327-5.818 0-8.145 6.982-6.982 10.473-17.455 10.473-26.764 0-3.491 2.327-5.818 5.818-5.818 3.491 0 5.818 2.327 5.818 5.818 0 12.8-4.655 25.6-12.8 34.909-2.327 1.164-4.655 1.164-5.818 1.164z" style="" fill="#ffcb5b" data-original="#ffcb5b"></path><path d="M407.273 349.091c-6.982 0-11.636-4.655-11.636-11.636V290.91c0-6.982 4.655-11.636 11.636-11.636s11.636 4.655 11.636 11.636v46.545c0 6.981-4.654 11.636-11.636 11.636z" style="" fill="#f19920" data-original="#f19920"></path><path d="M450.327 382.836c-8.145-29.091-29.091-52.364-55.855-62.836-4.655-26.764-22.109-50.036-44.218-64-13.964 15.127-23.273 34.909-23.273 57.018 0 45.382 36.073 81.455 81.455 81.455 15.128 1.163 29.091-3.491 41.891-11.637z" style="" fill="#f19920" data-original="#f19920"></path><path d="M370.036 358.4c-8.145-10.473-13.964-23.273-13.964-37.236a56.333 56.333 0 0 1 18.618-41.891c-2.327-3.491-4.655-5.818-6.982-8.145-11.636 10.473-18.618 25.6-18.618 43.055.001 18.617 8.146 33.744 20.946 44.217zM395.636 321.164v16.291c0 6.982 4.655 11.636 11.636 11.636s11.636-4.655 11.636-11.636v-2.327c-6.981-5.819-15.126-10.473-23.272-13.964z" style="" fill="#e78825" data-original="#e78825"></path><path d="M450.327 382.836c-2.327-8.145-4.655-15.127-9.309-22.109-9.309 6.982-20.945 11.636-33.745 11.636-32.582 0-58.182-25.6-58.182-58.182 0-17.455 6.982-32.582 18.618-43.055-5.818-5.818-11.636-10.473-18.618-13.964-13.964 15.127-23.273 34.909-23.273 57.018 0 45.382 36.073 81.455 81.455 81.455 16.291.001 30.254-4.653 43.054-12.799z" style="" fill="#f6b545" data-original="#f6b545"></path><path d="M446.836 372.364c-8.145 5.818-18.618 9.309-29.091 11.636-5.818 1.164-10.473 5.818-10.473 11.636 16.291 0 30.255-4.655 43.055-12.8l-3.491-10.472z" style="" fill="#f19920" data-original="#f19920"></path><path d="M349.091 257.164c-13.964 15.127-23.273 34.909-23.273 57.018h1.164c5.818 0 10.473-4.655 11.636-10.473 2.327-16.291 10.473-30.255 20.945-40.727-3.49-1.164-6.981-3.491-10.472-5.818z" style="" fill="#ffcb5b" data-original="#ffcb5b"></path><circle cx="302.545" cy="337.455" r="81.455" style="" fill="#f6b545" data-original="#f6b545"></circle><path d="M290.909 395.636c0 8.145 1.164 15.127 3.491 23.273h8.145c45.382 0 81.455-36.073 81.455-81.455 0-8.145-1.164-15.127-3.491-23.273h-8.145c-45.382.001-81.455 36.074-81.455 81.455z" style="" fill="#f19920" data-original="#f19920"></path><path d="M302.545 256c-45.382 0-81.455 36.073-81.455 81.455s36.073 81.455 81.455 81.455S384 382.836 384 337.455 347.927 256 302.545 256zm0 139.636c-32.582 0-58.182-25.6-58.182-58.182s25.6-58.182 58.182-58.182 58.182 25.6 58.182 58.182-25.6 58.182-58.182 58.182z" style="" fill="#ffcb5b" data-original="#ffcb5b"></path><path d="M302.545 417.745c45.382 1.164 81.455-36.072 81.455-80.29h-1.164c-5.818 0-10.473 4.655-11.636 10.473-2.327 16.291-10.473 31.418-22.109 41.891-9.309 9.309-22.109 15.127-36.073 17.455a10.428 10.428 0 0 0-10.473 10.471z" style="" fill="#f6b545" data-original="#f6b545"></path><path d="M302.545 257.164c-45.382-1.164-81.455 36.073-81.455 80.291h1.164c5.818 0 10.473-4.655 11.636-10.473 2.327-16.291 10.473-31.418 22.109-41.891 9.309-9.309 22.109-15.127 36.073-17.455a10.428 10.428 0 0 0 10.473-10.472z" style="" fill="#ffe27a" data-original="#ffe27a"></path><path d="M252.509 345.6c0-32.582 25.6-58.182 58.182-58.182 13.964 0 26.764 4.655 37.236 13.964-11.636-13.964-26.764-22.109-45.382-22.109-32.582 0-58.182 25.6-58.182 58.182 0 18.618 8.145 33.745 20.945 44.218-8.144-9.309-12.799-22.109-12.799-36.073z" style="" fill="#f19920" data-original="#f19920"></path><path d="M337.455 373.527c-1.164 0-2.327 0-3.491-1.164-2.327-2.327-2.327-5.818 0-8.145 6.982-6.982 10.473-17.455 10.473-26.764 0-3.491 2.327-5.818 5.818-5.818 3.491 0 5.818 2.327 5.818 5.818 0 12.8-4.655 25.6-12.8 34.909-2.328 1.164-4.655 1.164-5.818 1.164z" style="" fill="#ffcb5b" data-original="#ffcb5b"></path><path d="M302.545 372.364c-6.982 0-11.636-4.655-11.636-11.636v-46.545c0-6.982 4.655-11.636 11.636-11.636 6.982 0 11.636 4.655 11.636 11.636v46.545c.001 6.981-4.654 11.636-11.636 11.636z" style="" fill="#f19920" data-original="#f19920"></path><path d="M356.073 315.345c2.327 6.982 4.655 13.964 4.655 22.109 0 32.582-25.6 58.182-58.182 58.182-3.491 0-8.145 0-11.636-1.164v1.164c0 8.145 1.164 15.127 3.491 23.273h8.145c45.382 0 81.455-36.073 81.455-81.455 0-8.145-1.164-15.127-3.491-23.273h-8.145c-5.82.001-10.474.001-16.292 1.164z" style="" fill="#f6b545" data-original="#f6b545"></path><circle cx="360.727" cy="407.273" r="81.455" style="" fill="#f6b545" data-original="#f6b545"></circle><path d="M360.727 325.818c-45.382 0-81.455 36.073-81.455 81.455s36.073 81.455 81.455 81.455 81.455-36.073 81.455-81.455-36.073-81.455-81.455-81.455zm0 139.637c-32.582 0-58.182-25.6-58.182-58.182s25.6-58.182 58.182-58.182 58.182 25.6 58.182 58.182-25.6 58.182-58.182 58.182z" style="" fill="#ffcb5b" data-original="#ffcb5b"></path><path d="M360.727 487.564c45.382 1.164 81.455-36.073 81.455-80.291h-1.164c-5.818 0-10.473 4.655-11.636 10.473-2.327 16.291-10.473 31.418-22.109 41.891-9.309 9.309-22.109 15.127-36.073 17.455a10.428 10.428 0 0 0-10.473 10.472z" style="" fill="#f6b545" data-original="#f6b545"></path><path d="M360.727 326.982c-45.382-1.164-81.455 36.073-81.455 80.291h1.164c5.818 0 10.473-4.655 11.636-10.473 2.327-16.291 10.473-31.418 22.109-41.891 9.309-9.309 22.109-15.127 36.073-17.455a10.428 10.428 0 0 0 10.473-10.472z" style="" fill="#ffe27a" data-original="#ffe27a"></path><path d="M310.691 415.418c0-32.582 25.6-58.182 58.182-58.182 13.964 0 26.764 4.655 37.236 13.964-11.636-13.964-26.764-22.109-45.382-22.109-32.582 0-58.182 25.6-58.182 58.182 0 18.618 8.145 33.745 20.945 44.218-8.145-9.309-12.799-22.109-12.799-36.073z" style="" fill="#f19920" data-original="#f19920"></path><path d="M395.636 443.345c-1.164 0-2.327 0-3.491-1.164-2.327-2.327-2.327-5.818 0-8.145 6.982-6.982 10.473-17.455 10.473-26.764 0-3.491 2.327-5.818 5.818-5.818s5.818 2.327 5.818 5.818c0 12.8-4.655 25.6-12.8 34.909-2.327 1.164-4.654 1.164-5.818 1.164z" style="" fill="#ffcb5b" data-original="#ffcb5b"></path><path d="M360.727 442.182c-6.982 0-11.636-4.655-11.636-11.636V384c0-6.982 4.655-11.636 11.636-11.636 6.982 0 11.636 4.655 11.636 11.636v46.545c.001 6.982-4.654 11.637-11.636 11.637z" style="" fill="#f19920" data-original="#f19920"></path></g></svg>
