<svg xmlns="http://www.w3.org/2000/svg" width="312" height="312" fill="none" viewBox="0 0 312 312"><mask id="mask0_1271_5639" style="mask-type:alpha" width="312" height="312" x="0" y="0" maskUnits="userSpaceOnUse"><rect width="312" height="312" fill="#C4C4C4" rx="40"/></mask><g mask="url(#mask0_1271_5639)"><g filter="url(#filter0_d_1271_5639)"><rect width="214" height="200.562" x="26.612" y="87.354" fill="#EEE5FF" stroke="#B18AFF" rx="23.5" transform="rotate(-15 26.6124 87.3536)"/><path stroke="#B18AFF" stroke-width="3" d="M33.6605 109.794C30.4444 97.791 37.5675 85.4534 49.5704 82.2372L72.138 76.1903L123.53 267.987L100.962 274.034C88.9592 277.25 76.6216 270.127 73.4054 258.124L33.6605 109.794Z"/><path fill="#D3BDFF" d="M37.9057 131.433L85.236 118.75L125.612 269.435L101.464 275.905C88.6605 279.336 75.5004 271.738 72.0698 258.935L37.9057 131.433Z"/><path fill="#D3BDFF" d="M32.2117 110.182C28.7811 97.379 36.379 84.2189 49.1822 80.7883L210.492 37.5656C223.295 34.135 236.455 41.7329 239.886 54.5361L245.58 75.7865L37.9057 131.433L32.2117 110.182Z"/><rect width="85" height="198.562" x="72.27" y="76.155" stroke="#B18AFF" stroke-width="3" transform="rotate(-15 72.2697 76.155)"/><path stroke="#B18AFF" stroke-width="3" d="M33.6605 109.794C30.4444 97.791 37.5675 85.4534 49.5704 82.2372L210.88 39.0145C222.883 35.7983 235.221 42.9214 238.437 54.9244L243.851 75.132L39.0752 130.002L33.6605 109.794Z"/><rect width="212" height="58" x="51.648" y="176.926" stroke="#B18AFF" stroke-width="3" transform="rotate(-15 51.6485 176.926)"/><rect width="212" height="198.562" x="27.837" y="88.061" stroke="#B18AFF" stroke-width="3" rx="22.5" transform="rotate(-15 27.8371 88.0607)"/></g></g><defs><filter id="filter0_d_1271_5639" width="297.066" height="287.987" x="-2.612" y="36.742" color-interpolation-filters="sRGB" filterUnits="userSpaceOnUse"><feFlood flood-opacity="0" result="BackgroundImageFix"/><feColorMatrix in="SourceAlpha" result="hardAlpha" type="matrix" values="0 0 0 0 0 0 0 0 0 0 0 0 0 0 0 0 0 0 127 0"/><feOffset dx="-10" dy="24"/><feGaussianBlur stdDeviation="12"/><feColorMatrix type="matrix" values="0 0 0 0 0.496229 0 0 0 0 0.24 0 0 0 0 1 0 0 0 0.08 0"/><feBlend in2="BackgroundImageFix" mode="normal" result="effect1_dropShadow_1271_5639"/><feBlend in="SourceGraphic" in2="effect1_dropShadow_1271_5639" mode="normal" result="shape"/></filter></defs></svg>