<svg xmlns="http://www.w3.org/2000/svg" xmlns:xlink="http://www.w3.org/1999/xlink" width="143.32" height="95.293" version="1.1" viewBox="0 0 107.49 71.47"><defs><clipPath id="clip1"><path d="M 51 68 L 55 68 L 55 71.46875 L 51 71.46875 Z M 51 68"/></clipPath><clipPath id="clip2"><path d="M 92 30 L 107.488281 30 L 107.488281 51 L 92 51 Z M 92 30"/></clipPath></defs><g id="surface1"><path style="stroke:none;fill-rule:nonzero;fill:#c4151b;fill-opacity:1" d="M 23.253906 53.707031 L 23.554688 52.355469 L 42.929688 52.355469 L 42.625 53.707031 Z M 23.253906 53.707031"/><path style="stroke:none;fill-rule:nonzero;fill:#c4151b;fill-opacity:1" d="M 44.488281 53.707031 L 44.792969 52.355469 L 105.09375 52.355469 L 104.792969 53.707031 Z M 44.488281 53.707031"/><path style="stroke:none;fill-rule:nonzero;fill:#221e1f;fill-opacity:1" d="M 28.078125 66.789063 C 27.945313 67.503906 27.621094 68.054688 27.097656 68.449219 C 26.933594 68.570313 26.824219 68.648438 26.769531 68.6875 C 26.664063 68.761719 26.550781 68.8125 26.429688 68.839844 C 26.148438 68.90625 25.929688 68.9375 25.769531 68.9375 C 25.335938 68.9375 24.96875 68.8125 24.664063 68.558594 C 24.539063 68.453125 24.398438 68.277344 24.253906 68.03125 C 24.019531 67.640625 23.839844 67.171875 23.71875 66.625 C 23.671875 66.425781 23.597656 65.914063 23.480469 65.089844 L 23.78125 65.1875 C 23.890625 66.207031 24.195313 66.992188 24.691406 67.550781 C 25.019531 67.921875 25.457031 68.109375 26.003906 68.109375 C 26.570313 68.109375 27.054688 67.792969 27.460938 67.160156 C 27.570313 66.992188 27.617188 66.789063 27.605469 66.550781 C 27.597656 66.25 27.542969 66.097656 27.4375 66.097656 C 27.417969 66.097656 27.308594 66.203125 27.109375 66.410156 C 26.964844 66.5625 26.703125 66.699219 26.328125 66.820313 C 26.199219 66.859375 26.03125 66.882813 25.820313 66.890625 C 25.425781 66.902344 25.113281 66.757813 24.890625 66.460938 C 24.792969 66.332031 24.769531 66.136719 24.816406 65.867188 C 24.859375 65.609375 24.976563 65.410156 25.160156 65.269531 C 25.347656 65.128906 25.566406 65.070313 25.820313 65.089844 C 25.972656 65.101563 26.09375 65.167969 26.179688 65.277344 C 26.265625 65.394531 26.292969 65.527344 26.265625 65.6875 C 26.242188 65.820313 26.144531 65.988281 25.972656 66.1875 C 25.972656 66.203125 25.976563 66.210938 25.988281 66.210938 C 26.140625 66.210938 26.398438 66.054688 26.761719 65.738281 C 26.984375 65.546875 27.148438 65.347656 27.257813 65.148438 C 27.265625 65.136719 27.277344 65.128906 27.289063 65.128906 C 27.394531 65.128906 27.5625 65.328125 27.789063 65.730469 C 28.035156 66.164063 28.132813 66.515625 28.078125 66.789063 M 29.214844 64.617188 L 23.472656 64.617188 L 23.058594 64.109375 L 28.789063 64.109375"/><path style="stroke:none;fill-rule:nonzero;fill:#221e1f;fill-opacity:1" d="M 31.175781 64.621094 L 29.945313 64.621094 L 29.03125 69.859375 L 28.652344 69.339844 L 29.300781 65.605469 C 29.335938 65.386719 29.320313 65.210938 29.253906 65.078125 C 29.09375 64.773438 28.859375 64.621094 28.542969 64.621094 L 28.414063 64.621094 L 28 64.109375 C 28.300781 64.078125 28.5625 64.078125 28.78125 64.109375 C 29.121094 64.164063 29.328125 64.390625 29.410156 64.789063 C 29.445313 64.894531 29.484375 65.097656 29.53125 65.398438 C 29.523438 65.03125 29.546875 64.574219 29.601563 64.019531 C 29.625 63.785156 29.664063 63.515625 29.714844 63.210938 L 29.875 63.371094 C 29.867188 63.570313 29.878906 63.75 29.914063 63.910156 C 29.9375 63.964844 29.976563 64.027344 30.03125 64.109375 L 30.773438 64.109375"/><path style="stroke:none;fill-rule:nonzero;fill:#221e1f;fill-opacity:1" d="M 34.097656 64.597656 C 33.859375 64.605469 33.582031 64.667969 33.261719 64.789063 C 32.941406 64.910156 32.675781 65.046875 32.464844 65.199219 C 31.902344 65.613281 31.515625 66.160156 31.3125 66.839844 C 31.144531 67.398438 31.066406 67.8125 31.078125 68.078125 C 31.097656 68.527344 31.289063 68.878906 31.652344 69.140625 C 31.6875 69.164063 31.753906 69.179688 31.851563 69.179688 C 31.945313 69.179688 31.984375 69.164063 31.976563 69.140625 C 31.9375 69.140625 31.894531 69.078125 31.839844 68.960938 C 31.789063 68.839844 31.765625 68.753906 31.769531 68.699219 C 31.769531 68.457031 31.910156 68.269531 32.183594 68.128906 C 32.285156 68.074219 32.378906 68.050781 32.472656 68.050781 C 32.589844 68.050781 32.675781 68.085938 32.730469 68.160156 C 32.921875 68.265625 32.996094 68.449219 32.949219 68.710938 C 32.910156 68.941406 32.789063 69.136719 32.585938 69.292969 C 32.382813 69.453125 32.164063 69.527344 31.929688 69.527344 C 31.621094 69.527344 31.382813 69.449219 31.222656 69.289063 C 30.855469 68.929688 30.664063 68.453125 30.644531 67.851563 C 30.632813 67.601563 30.652344 67.355469 30.691406 67.113281 C 30.84375 66.242188 31.320313 65.410156 32.121094 64.621094 L 30.632813 64.621094 L 30.230469 64.109375 L 33.699219 64.109375"/><path style="stroke:none;fill-rule:nonzero;fill:#221e1f;fill-opacity:1" d="M 39.144531 64.609375 L 37.921875 64.609375 L 37.03125 69.738281 L 36.613281 69.25 L 37.09375 66.480469 C 37.125 66.308594 37.078125 66.15625 36.953125 66.011719 C 36.828125 65.871094 36.679688 65.808594 36.511719 65.828125 C 36.386719 65.84375 36.289063 65.910156 36.207031 66.027344 C 36.128906 66.144531 36.085938 66.265625 36.085938 66.386719 L 36.082031 66.636719 L 35.859375 66.71875 C 35.878906 66.6875 35.859375 66.605469 35.800781 66.480469 C 35.707031 66.265625 35.636719 66.140625 35.59375 66.097656 C 35.445313 65.917969 35.226563 65.828125 34.9375 65.828125 C 34.703125 65.828125 34.480469 65.914063 34.269531 66.085938 C 34.058594 66.253906 33.933594 66.460938 33.890625 66.699219 C 33.820313 67.097656 33.996094 67.335938 34.417969 67.410156 C 34.339844 67.28125 34.3125 67.152344 34.335938 67.019531 C 34.363281 66.859375 34.445313 66.730469 34.570313 66.628906 C 34.695313 66.53125 34.835938 66.480469 34.992188 66.480469 C 35.230469 66.472656 35.382813 66.617188 35.441406 66.910156 C 35.492188 67.148438 35.488281 67.316406 35.433594 67.410156 C 35.246094 67.730469 34.972656 67.890625 34.609375 67.890625 C 34.277344 67.890625 34 67.800781 33.78125 67.621094 C 33.5625 67.441406 33.449219 67.183594 33.4375 66.859375 C 33.433594 66.734375 33.445313 66.601563 33.46875 66.46875 C 33.527344 66.121094 33.671875 65.816406 33.90625 65.550781 C 34.160156 65.25 34.449219 65.097656 34.773438 65.089844 C 35.121094 65.082031 35.40625 65.210938 35.621094 65.480469 L 35.757813 65.710938 C 35.78125 65.59375 35.871094 65.46875 36.039063 65.324219 C 36.210938 65.179688 36.347656 65.113281 36.457031 65.121094 C 36.644531 65.132813 36.789063 65.191406 36.886719 65.296875 C 36.925781 65.371094 36.96875 65.445313 37.015625 65.519531 C 37.089844 65.613281 37.144531 65.769531 37.179688 65.988281 L 37.417969 64.609375 L 33.601563 64.609375 L 33.179688 64.097656 L 38.722656 64.097656"/><path style="stroke:none;fill-rule:nonzero;fill:#221e1f;fill-opacity:1" d="M 41.164063 64.621094 L 39.929688 64.621094 L 39.019531 69.859375 L 38.640625 69.339844 L 39.289063 65.605469 C 39.324219 65.386719 39.308594 65.210938 39.242188 65.078125 C 39.085938 64.773438 38.847656 64.621094 38.53125 64.621094 L 38.402344 64.621094 L 37.988281 64.109375 C 38.289063 64.078125 38.550781 64.078125 38.769531 64.109375 C 39.109375 64.164063 39.316406 64.390625 39.398438 64.789063 C 39.433594 64.894531 39.476563 65.097656 39.519531 65.398438 C 39.511719 65.03125 39.535156 64.574219 39.589844 64.019531 C 39.613281 63.785156 39.652344 63.515625 39.703125 63.210938 L 39.863281 63.371094 C 39.855469 63.570313 39.867188 63.75 39.902344 63.910156 C 39.925781 63.964844 39.964844 64.027344 40.019531 64.109375 L 40.761719 64.109375"/><path style="stroke:none;fill-rule:nonzero;fill:#221e1f;fill-opacity:1" d="M 48.492188 64.621094 L 47.335938 64.621094 L 46.449219 69.730469 L 46.21875 69.300781 L 46.007813 68.859375 C 45.792969 68.398438 45.386719 68.039063 44.796875 67.777344 C 44.550781 67.671875 44.261719 67.625 43.921875 67.640625 L 43.324219 66.597656 L 43.609375 66.609375 C 43.808594 66.5625 44.007813 66.519531 44.203125 66.476563 C 44.378906 66.433594 44.582031 66.347656 44.820313 66.226563 C 45.410156 65.925781 45.738281 65.601563 45.796875 65.253906 C 45.828125 65.070313 45.796875 64.921875 45.699219 64.800781 C 45.601563 64.679688 45.464844 64.621094 45.285156 64.621094 C 45.214844 64.621094 45.136719 64.636719 45.050781 64.667969 C 44.671875 64.816406 44.441406 64.953125 44.371094 65.070313 C 44.507813 65.265625 44.5625 65.4375 44.535156 65.585938 C 44.511719 65.734375 44.425781 65.855469 44.28125 65.957031 C 44.132813 66.058594 43.984375 66.109375 43.835938 66.109375 C 43.492188 66.109375 43.3125 65.929688 43.296875 65.570313 C 43.289063 65.417969 43.339844 65.25 43.441406 65.070313 C 43.621094 64.757813 43.886719 64.511719 44.238281 64.339844 C 44.570313 64.171875 44.910156 64.097656 45.257813 64.109375 C 45.601563 64.125 45.867188 64.265625 46.054688 64.535156 C 46.242188 64.804688 46.304688 65.117188 46.242188 65.46875 C 46.136719 66.070313 45.65625 66.613281 44.796875 67.097656 L 45.304688 67.449219 C 45.457031 67.550781 45.613281 67.699219 45.78125 67.898438 C 45.988281 68.144531 46.121094 68.351563 46.175781 68.519531 L 47.105469 63.179688 L 47.316406 63.5 L 47.320313 63.589844 C 47.292969 63.855469 47.332031 64.019531 47.429688 64.078125 C 47.625 64.074219 47.839844 64.074219 48.082031 64.078125"/><path style="stroke:none;fill-rule:nonzero;fill:#221e1f;fill-opacity:1" d="M 50.511719 64.621094 L 49.28125 64.621094 L 48.367188 69.859375 L 47.984375 69.339844 L 48.636719 65.605469 C 48.671875 65.386719 48.65625 65.210938 48.589844 65.078125 C 48.429688 64.773438 48.195313 64.621094 47.878906 64.621094 L 47.75 64.621094 L 47.335938 64.109375 C 47.636719 64.078125 47.898438 64.078125 48.113281 64.109375 C 48.457031 64.164063 48.664063 64.390625 48.746094 64.789063 C 48.78125 64.894531 48.824219 65.097656 48.867188 65.398438 C 48.859375 65.03125 48.882813 64.574219 48.9375 64.019531 C 48.960938 63.785156 49 63.515625 49.050781 63.210938 L 49.210938 63.371094 C 49.203125 63.570313 49.214844 63.75 49.25 63.910156 C 49.273438 63.964844 49.3125 64.027344 49.367188 64.109375 L 50.109375 64.109375"/><path style="stroke:none;fill-rule:nonzero;fill:#221e1f;fill-opacity:1" d="M 52.335938 68.300781 L 52.792969 65.679688 C 52.296875 65.859375 51.886719 66.042969 51.566406 66.230469 C 51.554688 66.238281 51.320313 66.386719 50.855469 66.679688 C 51.589844 67.027344 52.085938 67.566406 52.335938 68.300781 M 56.101563 64.617188 L 53.460938 64.617188 L 53.398438 64.988281 C 53.425781 64.976563 53.460938 64.96875 53.5 64.96875 C 53.882813 64.96875 54.21875 65.140625 54.5 65.480469 C 54.769531 65.792969 54.914063 66.148438 54.929688 66.550781 C 54.933594 66.703125 54.925781 66.84375 54.90625 66.96875 C 54.863281 67.222656 54.753906 67.441406 54.582031 67.628906 C 54.398438 67.835938 54.179688 67.9375 53.9375 67.9375 C 53.773438 67.9375 53.636719 67.878906 53.527344 67.757813 C 53.414063 67.640625 53.375 67.496094 53.402344 67.328125 C 53.4375 67.144531 53.558594 66.972656 53.769531 66.820313 C 53.878906 66.785156 53.976563 66.769531 54.0625 66.769531 C 54.207031 66.769531 54.359375 66.855469 54.519531 67.027344 C 54.53125 67.015625 54.539063 66.988281 54.546875 66.941406 C 54.601563 66.632813 54.519531 66.347656 54.308594 66.089844 C 54.050781 65.769531 53.707031 65.628906 53.277344 65.667969 L 52.585938 69.660156 L 52.4375 69.480469 L 52.367188 69.039063 C 52.332031 68.847656 52.230469 68.617188 52.050781 68.351563 C 51.875 68.085938 51.707031 67.898438 51.550781 67.78125 C 51.203125 67.542969 50.828125 67.402344 50.421875 67.355469 L 49.890625 66.503906 C 50.1875 66.285156 50.527344 66.074219 50.910156 65.867188 C 51.617188 65.480469 52.285156 65.195313 52.910156 65.007813 L 52.976563 64.617188 L 49.976563 64.617188 L 49.566406 64.109375 L 55.707031 64.109375"/><g clip-path="url(#clip1)" clip-rule="nonzero"><path style="stroke:none;fill-rule:nonzero;fill:#221e1f;fill-opacity:1" d="M 53.171875 69.898438 C 53.117188 69.78125 52.964844 69.726563 52.726563 69.738281 C 52.4375 69.753906 52.277344 69.84375 52.246094 70.007813 C 52.21875 70.175781 52.296875 70.257813 52.488281 70.257813 C 52.601563 70.257813 52.738281 70.226563 52.902344 70.160156 C 53.097656 70.078125 53.191406 69.992188 53.171875 69.898438 M 54.839844 71.371094 C 54.84375 71.375 54.84375 71.390625 54.832031 71.417969 C 54.8125 71.453125 54.789063 71.46875 54.765625 71.46875 C 54.746094 71.46875 54.726563 71.457031 54.710938 71.429688 C 54.578125 71.183594 54.324219 70.878906 53.953125 70.519531 C 53.722656 70.300781 53.597656 70.199219 53.582031 70.21875 C 53.304688 70.441406 53.144531 70.566406 53.089844 70.597656 C 52.945313 70.691406 52.785156 70.738281 52.613281 70.738281 C 52.398438 70.738281 52.210938 70.691406 52.054688 70.597656 C 51.878906 70.492188 51.792969 70.339844 51.800781 70.140625 C 51.8125 69.878906 51.921875 69.667969 52.121094 69.5 C 52.324219 69.332031 52.554688 69.25 52.820313 69.25 C 53.015625 69.25 53.234375 69.339844 53.476563 69.519531 C 53.519531 69.539063 53.550781 69.496094 53.578125 69.390625 C 53.585938 69.34375 53.601563 69.214844 53.628906 69.007813 C 53.640625 68.921875 53.65625 68.824219 53.671875 68.71875 C 53.679688 68.710938 53.691406 68.710938 53.695313 68.710938 C 53.789063 68.710938 53.863281 68.808594 53.929688 69.007813 C 53.984375 69.175781 54.011719 69.320313 54.003906 69.4375 C 53.992188 69.492188 53.984375 69.550781 53.972656 69.609375 C 53.960938 69.683594 53.957031 69.765625 53.957031 69.859375 C 54.140625 70.011719 54.265625 70.152344 54.339844 70.277344 C 54.664063 70.625 54.828125 70.988281 54.839844 71.371094"/></g><path style="stroke:none;fill-rule:nonzero;fill:#221e1f;fill-opacity:1" d="M 57.96875 68.300781 L 58.421875 65.679688 C 57.925781 65.859375 57.515625 66.042969 57.195313 66.230469 C 57.183594 66.238281 56.949219 66.386719 56.484375 66.679688 C 57.21875 67.027344 57.714844 67.566406 57.96875 68.300781 M 61.734375 64.617188 L 59.089844 64.617188 L 59.027344 64.988281 C 59.054688 64.976563 59.089844 64.96875 59.128906 64.96875 C 59.511719 64.96875 59.847656 65.140625 60.128906 65.480469 C 60.402344 65.792969 60.542969 66.148438 60.558594 66.550781 C 60.566406 66.703125 60.558594 66.84375 60.535156 66.96875 C 60.492188 67.222656 60.382813 67.441406 60.214844 67.628906 C 60.027344 67.835938 59.8125 67.9375 59.570313 67.9375 C 59.40625 67.9375 59.265625 67.878906 59.15625 67.757813 C 59.046875 67.640625 59.003906 67.496094 59.035156 67.328125 C 59.066406 67.144531 59.1875 66.972656 59.398438 66.820313 C 59.507813 66.785156 59.605469 66.769531 59.695313 66.769531 C 59.835938 66.769531 59.988281 66.855469 60.152344 67.027344 C 60.160156 67.015625 60.167969 66.988281 60.175781 66.941406 C 60.230469 66.632813 60.152344 66.347656 59.941406 66.089844 C 59.679688 65.769531 59.335938 65.628906 58.90625 65.667969 L 58.214844 69.660156 L 58.070313 69.480469 L 57.996094 69.039063 C 57.964844 68.847656 57.859375 68.617188 57.683594 68.351563 C 57.503906 68.085938 57.335938 67.898438 57.179688 67.78125 C 56.832031 67.542969 56.457031 67.402344 56.050781 67.355469 L 55.519531 66.503906 C 55.820313 66.285156 56.15625 66.074219 56.539063 65.867188 C 57.246094 65.480469 57.914063 65.195313 58.539063 65.007813 L 58.605469 64.617188 L 55.605469 64.617188 L 55.195313 64.109375 L 61.339844 64.109375"/><path style="stroke:none;fill-rule:nonzero;fill:#221e1f;fill-opacity:1" d="M 69.957031 64.621094 L 69.109375 64.621094 L 68.21875 69.730469 L 68.058594 69.578125 C 68.019531 68.945313 67.78125 68.292969 67.34375 67.621094 C 66.949219 68.113281 66.511719 68.359375 66.023438 68.359375 C 65.359375 68.359375 64.835938 67.933594 64.453125 67.074219 C 64.148438 66.398438 63.996094 65.660156 63.988281 64.859375 L 64.273438 64.988281 C 64.417969 65.785156 64.574219 66.339844 64.742188 66.65625 C 65.039063 67.21875 65.484375 67.5 66.085938 67.5 C 66.347656 67.5 66.582031 67.421875 66.789063 67.269531 C 66.996094 67.117188 67.125 66.910156 67.167969 66.648438 C 67.199219 66.46875 67.191406 66.277344 67.140625 66.078125 C 67.085938 65.832031 66.980469 65.714844 66.828125 65.71875 C 66.65625 66.066406 66.402344 66.238281 66.066406 66.238281 C 65.863281 66.238281 65.691406 66.175781 65.554688 66.042969 C 65.414063 65.914063 65.363281 65.75 65.398438 65.550781 C 65.4375 65.324219 65.574219 65.144531 65.804688 65.019531 C 66.003906 64.914063 66.21875 64.859375 66.453125 64.859375 C 66.902344 64.859375 67.257813 65.042969 67.519531 65.410156 C 67.777344 65.777344 67.871094 66.1875 67.789063 66.648438 C 67.773438 66.742188 67.746094 66.832031 67.714844 66.917969 L 68.035156 67.898438 L 68.605469 64.621094 L 63.910156 64.621094 L 63.507813 64.109375 L 69.542969 64.109375"/><path style="stroke:none;fill-rule:nonzero;fill:#221e1f;fill-opacity:1" d="M 72.34375 64.621094 L 71.109375 64.621094 L 70.199219 69.859375 L 69.816406 69.339844 L 70.464844 65.605469 C 70.503906 65.386719 70.488281 65.210938 70.417969 65.078125 C 70.261719 64.773438 70.027344 64.621094 69.710938 64.621094 L 69.582031 64.621094 L 69.167969 64.109375 C 69.46875 64.078125 69.730469 64.078125 69.945313 64.109375 C 70.285156 64.164063 70.496094 64.390625 70.578125 64.789063 C 70.613281 64.894531 70.652344 65.097656 70.699219 65.398438 C 70.691406 65.03125 70.714844 64.574219 70.769531 64.019531 C 70.792969 63.785156 70.828125 63.515625 70.882813 63.210938 L 71.042969 63.371094 C 71.035156 63.570313 71.046875 63.75 71.082031 63.910156 C 71.105469 63.964844 71.144531 64.027344 71.199219 64.109375 L 71.941406 64.109375"/><path style="stroke:none;fill-rule:nonzero;fill:#221e1f;fill-opacity:1" d="M 74.886719 65.089844 C 74.863281 65.058594 74.78125 64.980469 74.640625 64.855469 C 74.546875 64.777344 74.402344 64.738281 74.207031 64.738281 C 73.671875 64.738281 73.265625 64.949219 72.980469 65.375 C 73.207031 65.363281 73.359375 65.429688 73.441406 65.574219 C 73.542969 65.765625 73.582031 65.953125 73.558594 66.140625 C 73.546875 66.191406 73.535156 66.234375 73.519531 66.257813 Z M 77.65625 64.617188 L 76.40625 64.617188 L 75.527344 69.679688 C 75.449219 69.621094 75.304688 69.445313 75.085938 69.160156 L 75.601563 66.582031 C 75.570313 66.351563 75.535156 66.175781 75.496094 66.066406 C 75.429688 65.859375 75.332031 65.710938 75.210938 65.625 L 73.246094 67.332031 L 72.570313 67.0625 L 73.074219 66.605469 C 73.175781 66.511719 73.222656 66.367188 73.21875 66.167969 C 73.210938 65.9375 73.128906 65.820313 72.972656 65.828125 C 72.925781 65.828125 72.710938 65.890625 72.328125 66.007813 C 72.234375 66.027344 72.148438 65.992188 72.074219 65.894531 C 71.996094 65.800781 71.96875 65.703125 71.984375 65.609375 C 71.996094 65.53125 72.042969 65.441406 72.117188 65.34375 C 72.695313 64.59375 73.363281 64.210938 74.121094 64.199219 C 74.511719 64.191406 74.851563 64.320313 75.140625 64.578125 C 75.402344 64.808594 75.585938 65.117188 75.691406 65.503906 C 75.804688 65.914063 75.855469 66.175781 75.847656 66.289063 L 75.917969 64.941406 L 76.132813 63.359375 L 76.363281 63.558594 C 76.367188 63.574219 76.375 63.589844 76.382813 63.609375 C 76.367188 63.789063 76.390625 63.917969 76.453125 64 L 76.613281 64.109375 L 76.917969 64.109375 C 77.117188 64.109375 77.230469 64.113281 77.261719 64.117188"/><path style="stroke:none;fill-rule:nonzero;fill:#221e1f;fill-opacity:1" d="M 82.132813 64.621094 L 80.882813 64.621094 L 79.976563 69.828125 L 79.832031 69.578125 C 79.902344 69.367188 79.914063 69.007813 79.871094 68.507813 C 79.796875 67.65625 79.589844 67.054688 79.257813 66.699219 C 79.019531 66.445313 78.761719 66.328125 78.484375 66.339844 C 78.429688 66.339844 78.402344 66.347656 78.398438 66.371094 L 78.519531 66.597656 C 78.566406 66.699219 78.59375 66.804688 78.597656 66.917969 C 78.609375 67.167969 78.539063 67.363281 78.394531 67.515625 C 78.246094 67.664063 78.050781 67.738281 77.804688 67.738281 C 77.273438 67.738281 77.007813 67.5 77.015625 67.019531 C 77.015625 66.9375 77.023438 66.863281 77.035156 66.789063 C 77.089844 66.464844 77.253906 66.191406 77.523438 65.980469 C 77.792969 65.765625 78.09375 65.660156 78.417969 65.660156 C 79.007813 65.660156 79.453125 66.042969 79.753906 66.808594 C 79.867188 67.101563 79.921875 67.257813 79.917969 67.277344 L 80.378906 64.621094 L 77.027344 64.621094 L 76.621094 64.109375 L 81.710938 64.109375"/><path style="stroke:none;fill-rule:nonzero;fill:#221e1f;fill-opacity:1" d="M 84.027344 64.621094 L 82.792969 64.621094 L 81.882813 69.859375 L 81.503906 69.339844 L 82.152344 65.605469 C 82.1875 65.386719 82.171875 65.210938 82.105469 65.078125 C 81.949219 64.773438 81.710938 64.621094 81.394531 64.621094 L 81.265625 64.621094 L 80.851563 64.109375 C 81.15625 64.078125 81.414063 64.078125 81.632813 64.109375 C 81.972656 64.164063 82.179688 64.390625 82.261719 64.789063 C 82.296875 64.894531 82.339844 65.097656 82.382813 65.398438 C 82.375 65.03125 82.398438 64.574219 82.453125 64.019531 C 82.476563 63.785156 82.515625 63.515625 82.566406 63.210938 L 82.726563 63.371094 C 82.71875 63.570313 82.730469 63.75 82.765625 63.910156 C 82.789063 63.964844 82.828125 64.027344 82.882813 64.109375 L 83.625 64.109375"/><path style="stroke:none;fill-rule:nonzero;fill:#221e1f;fill-opacity:1" d="M 85.90625 68.449219 L 86.386719 65.679688 C 85.980469 65.8125 85.589844 65.96875 85.21875 66.148438 C 85.03125 66.242188 84.726563 66.425781 84.308594 66.699219 C 85.136719 67.078125 85.667969 67.664063 85.90625 68.449219 M 84.390625 69.269531 C 84.273438 69.269531 84.171875 69.226563 84.085938 69.144531 C 83.996094 69.0625 83.953125 68.960938 83.945313 68.839844 C 83.9375 68.691406 83.992188 68.554688 84.109375 68.429688 C 84.226563 68.304688 84.363281 68.238281 84.511719 68.238281 C 84.632813 68.238281 84.734375 68.28125 84.816406 68.359375 C 84.902344 68.4375 84.949219 68.535156 84.957031 68.648438 C 84.960938 68.796875 84.90625 68.9375 84.792969 69.070313 C 84.675781 69.203125 84.542969 69.269531 84.390625 69.269531 M 88.226563 64.621094 L 87.074219 64.621094 L 86.195313 69.679688 L 86.039063 69.5 L 85.738281 68.671875 C 85.601563 68.300781 85.351563 67.992188 84.996094 67.75 C 84.640625 67.503906 84.25 67.371094 83.820313 67.34375 L 83.335938 66.457031 C 84.4375 65.75 85.5 65.25 86.515625 64.949219 L 86.570313 64.621094 L 83.5625 64.621094 L 83.148438 64.109375 L 87.8125 64.109375"/><path style="stroke:none;fill-rule:nonzero;fill:#221e1f;fill-opacity:1" d="M 95.0625 64.609375 L 91.484375 64.609375 L 90.902344 67.960938 C 90.859375 68.199219 90.96875 68.320313 91.222656 68.320313 C 91.558594 68.320313 92 68.03125 92.546875 67.460938 C 92.730469 67.269531 92.855469 67.0625 92.921875 66.839844 L 92.773438 66.839844 C 92.632813 66.839844 92.511719 66.796875 92.402344 66.71875 C 92.289063 66.640625 92.230469 66.53125 92.226563 66.398438 C 92.226563 66.300781 92.246094 66.203125 92.289063 66.109375 C 92.441406 65.769531 92.6875 65.597656 93.027344 65.597656 C 93.316406 65.597656 93.523438 65.746094 93.640625 66.039063 C 93.710938 66.210938 93.722656 66.40625 93.679688 66.621094 C 93.550781 67.199219 93.300781 67.65625 92.925781 67.988281 C 92.199219 68.636719 91.667969 68.960938 91.332031 68.960938 C 91.113281 68.960938 90.945313 68.917969 90.832031 68.828125 C 90.613281 68.667969 90.488281 68.417969 90.449219 68.070313 C 90.4375 67.976563 90.46875 67.738281 90.53125 67.359375 L 91.011719 64.609375 L 90.230469 64.609375 L 89.914063 64.109375 L 93.621094 64.109375 C 93.640625 64 93.660156 63.90625 93.683594 63.824219 C 93.683594 63.664063 93.617188 63.546875 93.488281 63.46875 C 93.355469 63.398438 93.207031 63.371094 93.039063 63.390625 C 92.800781 63.390625 92.472656 63.410156 92.050781 63.449219 C 91.882813 63.464844 91.769531 63.46875 91.703125 63.46875 C 91.320313 63.46875 91 63.378906 90.742188 63.199219 C 90.4375 62.992188 90.316406 62.710938 90.378906 62.347656 C 90.410156 62.175781 90.488281 62.023438 90.617188 61.890625 C 90.628906 61.863281 90.664063 61.835938 90.730469 61.808594 C 90.792969 61.78125 90.832031 61.777344 90.839844 61.789063 C 90.847656 61.835938 90.839844 61.894531 90.828125 61.96875 C 90.738281 62.050781 90.679688 62.136719 90.667969 62.230469 C 90.621094 62.476563 90.746094 62.644531 91.042969 62.738281 C 91.171875 62.78125 91.28125 62.796875 91.367188 62.789063 L 91.90625 62.75 C 91.820313 62.75 91.972656 62.734375 92.355469 62.710938 C 92.578125 62.695313 92.765625 62.691406 92.929688 62.699219 C 93.269531 62.71875 93.523438 62.785156 93.695313 62.898438 C 94.105469 63.179688 94.242188 63.574219 94.101563 64.078125 L 94.664063 64.078125"/><path style="stroke:none;fill-rule:nonzero;fill:#221e1f;fill-opacity:1" d="M 97.09375 64.621094 L 95.859375 64.621094 L 94.949219 69.859375 L 94.566406 69.339844 L 95.214844 65.605469 C 95.253906 65.386719 95.238281 65.210938 95.167969 65.078125 C 95.011719 64.773438 94.777344 64.621094 94.460938 64.621094 L 94.332031 64.621094 L 93.917969 64.109375 C 94.21875 64.078125 94.480469 64.078125 94.695313 64.109375 C 95.035156 64.164063 95.246094 64.390625 95.328125 64.789063 C 95.363281 64.894531 95.402344 65.097656 95.449219 65.398438 C 95.441406 65.03125 95.464844 64.574219 95.519531 64.019531 C 95.542969 63.785156 95.578125 63.515625 95.632813 63.210938 L 95.792969 63.371094 C 95.785156 63.570313 95.796875 63.75 95.832031 63.910156 C 95.855469 63.964844 95.894531 64.027344 95.949219 64.109375 L 96.691406 64.109375"/><path style="stroke:none;fill-rule:nonzero;fill:#221e1f;fill-opacity:1" d="M 98.917969 68.300781 L 99.375 65.679688 C 98.875 65.859375 98.46875 66.042969 98.144531 66.230469 C 98.136719 66.238281 97.902344 66.386719 97.4375 66.679688 C 98.171875 67.027344 98.664063 67.566406 98.917969 68.300781 M 102.683594 64.617188 L 100.042969 64.617188 L 99.976563 64.988281 C 100.007813 64.976563 100.039063 64.96875 100.078125 64.96875 C 100.464844 64.96875 100.796875 65.140625 101.082031 65.480469 C 101.351563 65.792969 101.492188 66.148438 101.511719 66.550781 C 101.515625 66.703125 101.511719 66.84375 101.488281 66.96875 C 101.441406 67.222656 101.335938 67.441406 101.164063 67.628906 C 100.980469 67.835938 100.761719 67.9375 100.519531 67.9375 C 100.355469 67.9375 100.21875 67.878906 100.105469 67.757813 C 99.996094 67.640625 99.957031 67.496094 99.984375 67.328125 C 100.019531 67.144531 100.140625 66.972656 100.351563 66.820313 C 100.460938 66.785156 100.558594 66.769531 100.644531 66.769531 C 100.789063 66.769531 100.941406 66.855469 101.101563 67.027344 C 101.109375 67.015625 101.121094 66.988281 101.128906 66.941406 C 101.183594 66.632813 101.101563 66.347656 100.890625 66.089844 C 100.632813 65.769531 100.285156 65.628906 99.859375 65.667969 L 99.164063 69.660156 L 99.019531 69.480469 L 98.949219 69.039063 C 98.914063 68.847656 98.808594 68.617188 98.632813 68.351563 C 98.457031 68.085938 98.289063 67.898438 98.132813 67.78125 C 97.785156 67.542969 97.410156 67.402344 97.003906 67.355469 L 96.46875 66.503906 C 96.769531 66.285156 97.109375 66.074219 97.492188 65.867188 C 98.199219 65.480469 98.863281 65.195313 99.492188 65.007813 L 99.558594 64.617188 L 96.558594 64.617188 L 96.148438 64.109375 L 102.289063 64.109375"/><path style="stroke:none;fill-rule:nonzero;fill:#221e1f;fill-opacity:1" d="M 104.714844 64.621094 L 103.480469 64.621094 L 102.570313 69.859375 L 102.1875 69.339844 L 102.839844 65.605469 C 102.878906 65.386719 102.859375 65.210938 102.789063 65.078125 C 102.636719 64.773438 102.398438 64.621094 102.082031 64.621094 L 101.953125 64.621094 L 101.539063 64.109375 C 101.839844 64.078125 102.101563 64.078125 102.320313 64.109375 C 102.660156 64.164063 102.867188 64.390625 102.949219 64.789063 C 102.984375 64.894531 103.027344 65.097656 103.070313 65.398438 C 103.0625 65.03125 103.085938 64.574219 103.140625 64.019531 C 103.164063 63.785156 103.203125 63.515625 103.253906 63.210938 L 103.414063 63.371094 C 103.40625 63.570313 103.417969 63.75 103.453125 63.910156 C 103.476563 63.964844 103.515625 64.027344 103.570313 64.109375 L 104.3125 64.109375"/><path style="stroke:none;fill-rule:nonzero;fill:#221e1f;fill-opacity:1" d="M 23.347656 59.53125 L 24.1875 55.222656 L 24.851563 55.222656 L 25.257813 58.015625 C 25.308594 58.382813 25.34375 58.734375 25.359375 59.070313 C 25.472656 58.78125 25.660156 58.386719 25.921875 57.890625 L 27.332031 55.222656 L 28.003906 55.222656 L 27.164063 59.53125 L 26.632813 59.53125 L 27.054688 57.4375 C 27.152344 56.953125 27.289063 56.410156 27.472656 55.808594 C 27.355469 56.085938 27.214844 56.390625 27.042969 56.714844 L 25.542969 59.53125 L 25.027344 59.53125 L 24.621094 56.769531 C 24.585938 56.515625 24.558594 56.21875 24.542969 55.882813 C 24.496094 56.261719 24.453125 56.5625 24.410156 56.785156 L 23.871094 59.53125"/><path style="stroke:none;fill-rule:nonzero;fill:#221e1f;fill-opacity:1" d="M 28.828125 57.757813 C 28.828125 58.007813 28.875 58.242188 28.972656 58.453125 C 29.070313 58.664063 29.21875 58.828125 29.410156 58.949219 C 29.605469 59.070313 29.808594 59.128906 30.023438 59.128906 C 30.230469 59.128906 30.425781 59.078125 30.613281 58.972656 C 30.800781 58.867188 30.96875 58.722656 31.113281 58.535156 C 31.261719 58.347656 31.378906 58.117188 31.464844 57.84375 C 31.546875 57.570313 31.59375 57.300781 31.59375 57.035156 C 31.59375 56.605469 31.480469 56.265625 31.253906 56.011719 C 31.03125 55.753906 30.753906 55.628906 30.425781 55.628906 C 30.003906 55.628906 29.632813 55.820313 29.308594 56.207031 C 28.988281 56.589844 28.828125 57.109375 28.828125 57.757813 M 28.296875 57.726563 C 28.296875 56.957031 28.503906 56.335938 28.917969 55.863281 C 29.335938 55.386719 29.835938 55.148438 30.425781 55.148438 C 30.929688 55.148438 31.339844 55.324219 31.652344 55.671875 C 31.96875 56.023438 32.128906 56.492188 32.128906 57.078125 C 32.128906 57.5 32.046875 57.890625 31.886719 58.246094 C 31.769531 58.515625 31.617188 58.746094 31.4375 58.941406 C 31.257813 59.136719 31.0625 59.289063 30.855469 59.394531 C 30.582031 59.535156 30.289063 59.605469 29.984375 59.605469 C 29.660156 59.605469 29.367188 59.523438 29.101563 59.359375 C 28.839844 59.195313 28.640625 58.964844 28.503906 58.667969 C 28.363281 58.375 28.296875 58.058594 28.296875 57.726563"/><path style="stroke:none;fill-rule:nonzero;fill:#221e1f;fill-opacity:1" d="M 33.421875 57.0625 L 34.238281 57.0625 C 34.628906 57.0625 34.90625 56.996094 35.078125 56.863281 C 35.25 56.730469 35.335938 56.535156 35.335938 56.28125 C 35.335938 56.160156 35.308594 56.054688 35.257813 55.964844 C 35.203125 55.878906 35.132813 55.8125 35.042969 55.773438 C 34.953125 55.734375 34.789063 55.714844 34.542969 55.714844 L 33.6875 55.714844 Z M 33.035156 59.042969 L 33.953125 59.042969 C 34.195313 59.042969 34.359375 59.035156 34.445313 59.015625 C 34.613281 58.984375 34.75 58.933594 34.859375 58.855469 C 34.964844 58.78125 35.046875 58.683594 35.109375 58.558594 C 35.167969 58.433594 35.199219 58.304688 35.199219 58.171875 C 35.199219 57.96875 35.140625 57.816406 35.023438 57.710938 C 34.902344 57.605469 34.679688 57.554688 34.347656 57.554688 L 33.324219 57.554688 Z M 32.402344 59.53125 L 33.242188 55.222656 L 34.488281 55.222656 C 34.71875 55.222656 34.886719 55.230469 34.996094 55.25 C 35.175781 55.285156 35.324219 55.34375 35.449219 55.425781 C 35.574219 55.507813 35.667969 55.625 35.734375 55.769531 C 35.804688 55.910156 35.835938 56.070313 35.835938 56.246094 C 35.835938 56.484375 35.777344 56.691406 35.65625 56.871094 C 35.535156 57.050781 35.347656 57.1875 35.097656 57.28125 C 35.316406 57.359375 35.476563 57.476563 35.585938 57.628906 C 35.695313 57.78125 35.746094 57.960938 35.746094 58.167969 C 35.746094 58.40625 35.683594 58.632813 35.554688 58.851563 C 35.429688 59.066406 35.261719 59.234375 35.050781 59.355469 C 34.84375 59.472656 34.609375 59.53125 34.351563 59.53125"/><path style="stroke:none;fill-rule:nonzero;fill:#221e1f;fill-opacity:1" d="M 36.226563 59.53125 L 37.070313 55.222656 L 37.605469 55.222656 L 36.765625 59.53125 Z M 36.226563 59.53125"/><path style="stroke:none;fill-rule:nonzero;fill:#221e1f;fill-opacity:1" d="M 37.691406 59.53125 L 38.535156 55.222656 L 39.074219 55.222656 L 38.328125 59.042969 L 40.417969 59.042969 L 40.320313 59.53125"/><path style="stroke:none;fill-rule:nonzero;fill:#221e1f;fill-opacity:1" d="M 40.847656 59.53125 L 41.691406 55.222656 L 44.59375 55.222656 L 44.5 55.714844 L 42.132813 55.714844 L 41.871094 57.054688 L 44.175781 57.054688 L 44.078125 57.542969 L 41.773438 57.542969 L 41.480469 59.042969 L 44.015625 59.042969 L 43.917969 59.53125"/><path style="stroke:none;fill-rule:nonzero;fill:#221e1f;fill-opacity:1" d="M 46.160156 59.53125 L 47.003906 55.222656 L 49.617188 55.222656 L 49.523438 55.714844 L 47.445313 55.714844 L 47.175781 57.085938 L 49.292969 57.085938 L 49.199219 57.578125 L 47.082031 57.578125 L 46.699219 59.53125"/><path style="stroke:none;fill-rule:nonzero;fill:#221e1f;fill-opacity:1" d="M 49.664063 59.53125 L 50.507813 55.222656 L 51.039063 55.222656 L 50.199219 59.53125 Z M 49.664063 59.53125"/><path style="stroke:none;fill-rule:nonzero;fill:#221e1f;fill-opacity:1" d="M 51.175781 59.53125 L 52.019531 55.222656 L 52.542969 55.222656 L 53.21875 56.839844 C 53.425781 57.332031 53.589844 57.75 53.710938 58.085938 C 53.78125 58.28125 53.863281 58.546875 53.953125 58.878906 C 54.003906 58.515625 54.066406 58.140625 54.140625 57.757813 L 54.632813 55.222656 L 55.15625 55.222656 L 54.320313 59.53125 L 53.785156 59.53125 L 52.785156 57.042969 C 52.609375 56.601563 52.46875 56.214844 52.371094 55.882813 C 52.34375 56.160156 52.289063 56.503906 52.210938 56.914063 L 51.703125 59.53125"/><path style="stroke:none;fill-rule:nonzero;fill:#221e1f;fill-opacity:1" d="M 56.316406 57.847656 L 57.648438 57.847656 L 57.492188 56.765625 C 57.429688 56.335938 57.394531 55.980469 57.378906 55.691406 C 57.289063 55.941406 57.15625 56.234375 56.976563 56.570313 Z M 54.851563 59.53125 L 57.132813 55.222656 L 57.765625 55.222656 L 58.429688 59.53125 L 57.910156 59.53125 L 57.714844 58.289063 L 56.085938 58.289063 L 55.441406 59.53125"/><path style="stroke:none;fill-rule:nonzero;fill:#221e1f;fill-opacity:1" d="M 58.988281 59.53125 L 59.832031 55.222656 L 60.351563 55.222656 L 61.027344 56.839844 C 61.234375 57.332031 61.398438 57.75 61.519531 58.085938 C 61.589844 58.28125 61.671875 58.546875 61.761719 58.878906 C 61.8125 58.515625 61.875 58.140625 61.949219 57.757813 L 62.441406 55.222656 L 62.96875 55.222656 L 62.128906 59.53125 L 61.59375 59.53125 L 60.59375 57.042969 C 60.417969 56.601563 60.28125 56.214844 60.179688 55.882813 C 60.152344 56.160156 60.101563 56.503906 60.023438 56.914063 L 59.511719 59.53125"/><path style="stroke:none;fill-rule:nonzero;fill:#221e1f;fill-opacity:1" d="M 66.164063 58.015625 L 66.695313 58.09375 C 66.527344 58.59375 66.28125 58.96875 65.960938 59.222656 C 65.640625 59.476563 65.277344 59.605469 64.875 59.605469 C 64.386719 59.605469 64 59.445313 63.714844 59.125 C 63.425781 58.808594 63.285156 58.347656 63.285156 57.753906 C 63.285156 56.976563 63.503906 56.335938 63.9375 55.828125 C 64.324219 55.375 64.808594 55.148438 65.382813 55.148438 C 65.808594 55.148438 66.15625 55.273438 66.417969 55.515625 C 66.683594 55.761719 66.839844 56.089844 66.878906 56.503906 L 66.378906 56.554688 C 66.324219 56.242188 66.214844 56.011719 66.050781 55.855469 C 65.882813 55.703125 65.667969 55.625 65.410156 55.625 C 64.914063 55.625 64.519531 55.859375 64.214844 56.328125 C 63.949219 56.730469 63.820313 57.210938 63.820313 57.765625 C 63.820313 58.207031 63.921875 58.546875 64.125 58.78125 C 64.328125 59.011719 64.59375 59.128906 64.917969 59.128906 C 65.195313 59.128906 65.445313 59.03125 65.671875 58.835938 C 65.898438 58.644531 66.0625 58.371094 66.164063 58.015625"/><path style="stroke:none;fill-rule:nonzero;fill:#221e1f;fill-opacity:1" d="M 67.152344 59.53125 L 67.996094 55.222656 L 68.53125 55.222656 L 67.691406 59.53125 Z M 67.152344 59.53125"/><path style="stroke:none;fill-rule:nonzero;fill:#221e1f;fill-opacity:1" d="M 69.75 57.847656 L 71.078125 57.847656 L 70.921875 56.765625 C 70.863281 56.335938 70.824219 55.980469 70.8125 55.691406 C 70.71875 55.941406 70.585938 56.234375 70.410156 56.570313 Z M 68.28125 59.53125 L 70.5625 55.222656 L 71.199219 55.222656 L 71.863281 59.53125 L 71.339844 59.53125 L 71.144531 58.289063 L 69.519531 58.289063 L 68.871094 59.53125"/><path style="stroke:none;fill-rule:nonzero;fill:#221e1f;fill-opacity:1" d="M 72.367188 59.53125 L 73.210938 55.222656 L 73.746094 55.222656 L 73.003906 59.042969 L 75.09375 59.042969 L 74.996094 59.53125"/><path style="stroke:none;fill-rule:nonzero;fill:#221e1f;fill-opacity:1" d="M 77.125 58.136719 L 77.652344 58.085938 L 77.648438 58.234375 C 77.648438 58.402344 77.683594 58.554688 77.753906 58.691406 C 77.828125 58.832031 77.945313 58.9375 78.109375 59.011719 C 78.273438 59.089844 78.46875 59.125 78.695313 59.125 C 79.019531 59.125 79.265625 59.050781 79.433594 58.898438 C 79.605469 58.75 79.6875 58.574219 79.6875 58.382813 C 79.6875 58.246094 79.644531 58.125 79.554688 58.011719 C 79.460938 57.902344 79.210938 57.753906 78.804688 57.566406 C 78.488281 57.417969 78.273438 57.304688 78.15625 57.226563 C 77.972656 57.101563 77.84375 56.960938 77.753906 56.8125 C 77.667969 56.660156 77.625 56.492188 77.625 56.296875 C 77.625 56.078125 77.683594 55.875 77.796875 55.699219 C 77.910156 55.519531 78.074219 55.382813 78.292969 55.289063 C 78.515625 55.195313 78.761719 55.148438 79.035156 55.148438 C 79.363281 55.148438 79.640625 55.207031 79.863281 55.324219 C 80.089844 55.441406 80.25 55.601563 80.355469 55.796875 C 80.453125 55.992188 80.507813 56.179688 80.507813 56.355469 C 80.507813 56.375 80.503906 56.402344 80.503906 56.445313 L 79.984375 56.488281 C 79.984375 56.367188 79.972656 56.273438 79.953125 56.203125 C 79.917969 56.085938 79.859375 55.984375 79.785156 55.902344 C 79.707031 55.820313 79.601563 55.753906 79.46875 55.703125 C 79.332031 55.652344 79.179688 55.628906 79.015625 55.628906 C 78.722656 55.628906 78.496094 55.699219 78.332031 55.839844 C 78.207031 55.949219 78.144531 56.089844 78.144531 56.269531 C 78.144531 56.375 78.171875 56.46875 78.222656 56.550781 C 78.273438 56.636719 78.363281 56.71875 78.5 56.796875 C 78.59375 56.855469 78.820313 56.96875 79.175781 57.136719 C 79.46875 57.273438 79.664063 57.378906 79.773438 57.460938 C 79.921875 57.5625 80.035156 57.6875 80.113281 57.835938 C 80.191406 57.984375 80.230469 58.152344 80.230469 58.339844 C 80.230469 58.574219 80.164063 58.789063 80.03125 58.988281 C 79.898438 59.183594 79.714844 59.335938 79.480469 59.445313 C 79.246094 59.550781 78.980469 59.605469 78.675781 59.605469 C 78.222656 59.605469 77.847656 59.5 77.5625 59.285156 C 77.273438 59.074219 77.128906 58.691406 77.125 58.136719"/><path style="stroke:none;fill-rule:nonzero;fill:#221e1f;fill-opacity:1" d="M 80.734375 59.53125 L 81.578125 55.222656 L 84.480469 55.222656 L 84.382813 55.714844 L 82.019531 55.714844 L 81.753906 57.054688 L 84.058594 57.054688 L 83.964844 57.542969 L 81.660156 57.542969 L 81.367188 59.042969 L 83.902344 59.042969 L 83.804688 59.53125"/><path style="stroke:none;fill-rule:nonzero;fill:#221e1f;fill-opacity:1" d="M 85.496094 57.152344 L 86.242188 57.152344 C 86.585938 57.152344 86.808594 57.144531 86.914063 57.136719 C 87.117188 57.113281 87.28125 57.066406 87.414063 56.988281 C 87.542969 56.914063 87.644531 56.808594 87.714844 56.679688 C 87.785156 56.550781 87.820313 56.410156 87.820313 56.261719 C 87.820313 56.136719 87.796875 56.027344 87.742188 55.933594 C 87.6875 55.84375 87.621094 55.777344 87.535156 55.746094 C 87.445313 55.710938 87.300781 55.695313 87.09375 55.695313 L 85.78125 55.695313 Z M 84.496094 59.53125 L 85.339844 55.222656 L 87.027344 55.222656 C 87.359375 55.222656 87.609375 55.253906 87.78125 55.3125 C 87.953125 55.371094 88.089844 55.484375 88.1875 55.648438 C 88.285156 55.8125 88.335938 56.019531 88.335938 56.273438 C 88.335938 56.621094 88.226563 56.914063 88.015625 57.144531 C 87.800781 57.375 87.453125 57.527344 86.976563 57.59375 C 87.121094 57.710938 87.234375 57.824219 87.308594 57.933594 C 87.476563 58.1875 87.613281 58.449219 87.714844 58.71875 L 88.023438 59.53125 L 87.421875 59.53125 L 87.132813 58.730469 C 87.027344 58.441406 86.910156 58.1875 86.777344 57.976563 C 86.683594 57.828125 86.589844 57.734375 86.496094 57.6875 C 86.402344 57.640625 86.246094 57.617188 86.03125 57.617188 L 85.40625 57.617188 L 85.03125 59.53125"/><path style="stroke:none;fill-rule:nonzero;fill:#221e1f;fill-opacity:1" d="M 89.660156 59.53125 L 88.886719 55.222656 L 89.40625 55.222656 L 89.871094 57.792969 C 89.957031 58.257813 90.015625 58.632813 90.039063 58.921875 C 90.207031 58.550781 90.347656 58.261719 90.453125 58.042969 L 91.890625 55.222656 L 92.445313 55.222656 L 90.238281 59.53125"/><path style="stroke:none;fill-rule:nonzero;fill:#221e1f;fill-opacity:1" d="M 92.261719 59.53125 L 93.101563 55.222656 L 93.640625 55.222656 L 92.796875 59.53125 Z M 92.261719 59.53125"/><path style="stroke:none;fill-rule:nonzero;fill:#221e1f;fill-opacity:1" d="M 96.890625 58.015625 L 97.421875 58.09375 C 97.253906 58.59375 97.007813 58.96875 96.6875 59.222656 C 96.367188 59.476563 96.003906 59.605469 95.601563 59.605469 C 95.113281 59.605469 94.726563 59.445313 94.441406 59.125 C 94.15625 58.808594 94.011719 58.347656 94.011719 57.753906 C 94.011719 56.976563 94.230469 56.335938 94.664063 55.828125 C 95.050781 55.375 95.535156 55.148438 96.109375 55.148438 C 96.535156 55.148438 96.882813 55.273438 97.148438 55.515625 C 97.410156 55.761719 97.566406 56.089844 97.605469 56.503906 L 97.105469 56.554688 C 97.050781 56.242188 96.941406 56.011719 96.777344 55.855469 C 96.609375 55.703125 96.398438 55.625 96.136719 55.625 C 95.644531 55.625 95.246094 55.859375 94.941406 56.328125 C 94.679688 56.730469 94.546875 57.210938 94.546875 57.765625 C 94.546875 58.207031 94.648438 58.546875 94.851563 58.78125 C 95.054688 59.011719 95.320313 59.128906 95.644531 59.128906 C 95.921875 59.128906 96.175781 59.03125 96.398438 58.835938 C 96.625 58.644531 96.789063 58.371094 96.890625 58.015625"/><path style="stroke:none;fill-rule:nonzero;fill:#221e1f;fill-opacity:1" d="M 97.8125 59.53125 L 98.65625 55.222656 L 101.5625 55.222656 L 101.464844 55.714844 L 99.097656 55.714844 L 98.835938 57.054688 L 101.140625 57.054688 L 101.042969 57.542969 L 98.738281 57.542969 L 98.449219 59.042969 L 100.980469 59.042969 L 100.886719 59.53125"/><path style="stroke:none;fill-rule:nonzero;fill:#221e1f;fill-opacity:1" d="M 101.707031 58.136719 L 102.234375 58.085938 L 102.226563 58.234375 C 102.226563 58.402344 102.265625 58.554688 102.335938 58.691406 C 102.40625 58.832031 102.523438 58.9375 102.6875 59.011719 C 102.855469 59.089844 103.050781 59.125 103.277344 59.125 C 103.597656 59.125 103.84375 59.050781 104.015625 58.898438 C 104.183594 58.75 104.269531 58.574219 104.269531 58.382813 C 104.269531 58.246094 104.222656 58.125 104.132813 58.011719 C 104.042969 57.902344 103.792969 57.753906 103.382813 57.566406 C 103.066406 57.417969 102.851563 57.304688 102.734375 57.226563 C 102.554688 57.101563 102.421875 56.960938 102.335938 56.8125 C 102.25 56.660156 102.207031 56.492188 102.207031 56.296875 C 102.207031 56.078125 102.261719 55.875 102.378906 55.699219 C 102.488281 55.519531 102.65625 55.382813 102.875 55.289063 C 103.09375 55.195313 103.339844 55.148438 103.613281 55.148438 C 103.941406 55.148438 104.21875 55.207031 104.441406 55.324219 C 104.667969 55.441406 104.832031 55.601563 104.933594 55.796875 C 105.035156 55.992188 105.085938 56.179688 105.085938 56.355469 C 105.085938 56.375 105.085938 56.402344 105.082031 56.445313 L 104.5625 56.488281 C 104.5625 56.367188 104.554688 56.273438 104.535156 56.203125 C 104.496094 56.085938 104.441406 55.984375 104.363281 55.902344 C 104.285156 55.820313 104.183594 55.753906 104.046875 55.703125 C 103.910156 55.652344 103.761719 55.628906 103.597656 55.628906 C 103.304688 55.628906 103.074219 55.699219 102.910156 55.839844 C 102.785156 55.949219 102.726563 56.089844 102.726563 56.269531 C 102.726563 56.375 102.75 56.46875 102.800781 56.550781 C 102.851563 56.636719 102.945313 56.71875 103.078125 56.796875 C 103.175781 56.855469 103.398438 56.96875 103.757813 57.136719 C 104.046875 57.273438 104.246094 57.378906 104.355469 57.460938 C 104.503906 57.5625 104.613281 57.6875 104.691406 57.835938 C 104.773438 57.984375 104.8125 58.152344 104.8125 58.339844 C 104.8125 58.574219 104.746094 58.789063 104.613281 58.988281 C 104.480469 59.183594 104.296875 59.335938 104.0625 59.445313 C 103.828125 59.550781 103.558594 59.605469 103.257813 59.605469 C 102.800781 59.605469 102.429688 59.5 102.140625 59.285156 C 101.851563 59.074219 101.710938 58.691406 101.707031 58.136719"/><path style="stroke:none;fill-rule:nonzero;fill:#221e1f;fill-opacity:1" d="M 58.902344 37.160156 C 58.902344 34.652344 57.492188 33.367188 55.5 33.367188 C 51.21875 33.367188 49.28125 38.015625 49.28125 41.921875 C 49.28125 44.714844 50.554688 47.164063 53.585938 47.164063 C 55.898438 47.164063 57.679688 45.253906 58.050781 43.117188 L 62.226563 43.117188 C 60.523438 48.789063 57.652344 50.925781 53.53125 50.925781 C 48.21875 50.925781 45.105469 47.648438 45.105469 41.921875 C 45.105469 35.335938 49.066406 29.605469 55.472656 29.605469 C 59.859375 29.605469 63.183594 32.199219 63.078125 37.160156"/><path style="stroke:none;fill-rule:nonzero;fill:#221e1f;fill-opacity:1" d="M 73.390625 43.375 C 72.433594 43.972656 71.289063 44 70.203125 44.085938 C 68.765625 44.257813 67.410156 44.628906 67.410156 46.480469 C 67.410156 47.59375 68.394531 48.132813 69.484375 48.132813 C 71.824219 48.132813 72.59375 46.394531 73.019531 44.800781 Z M 65.414063 40.179688 C 65.894531 36.476563 68.820313 35.308594 71.929688 35.308594 C 74.375 35.308594 77.695313 35.878906 77.644531 39.183594 C 77.644531 39.8125 77.511719 40.75 77.351563 41.664063 L 76.128906 47.59375 C 75.992188 48.105469 75.941406 49.015625 75.941406 49.585938 C 75.941406 49.84375 75.992188 50.1875 76.074219 50.441406 L 72.300781 50.441406 L 72.300781 48.988281 C 71.261719 50.242188 69.640625 50.839844 68.101563 50.839844 C 65.097656 50.839844 63.632813 49.015625 63.632813 46.964844 C 63.632813 44.144531 65.628906 42.375 68.898438 41.949219 C 72.460938 41.492188 74.132813 41.691406 74.132813 39.8125 C 74.132813 38.355469 72.699219 38.015625 71.742188 38.015625 C 70.386719 38.015625 69.191406 38.699219 68.953125 40.179688"/><path style="stroke:none;fill-rule:nonzero;fill:#221e1f;fill-opacity:1" d="M 88.433594 40.011719 C 88.410156 38.753906 87.742188 38.015625 86.308594 38.015625 C 84.980469 38.015625 83.996094 38.414063 83.996094 39.46875 C 83.996094 40.125 84.449219 40.523438 85.722656 40.949219 L 87.609375 41.605469 C 89.632813 42.320313 91.226563 43.34375 91.226563 45.824219 C 91.226563 49.472656 87.851563 50.839844 84.6875 50.839844 C 82.003906 50.839844 78.839844 49.699219 78.839844 46.253906 L 78.839844 45.652344 L 82.347656 45.652344 L 82.347656 46.136719 C 82.347656 47.476563 83.757813 48.132813 85.058594 48.132813 C 86.203125 48.132813 87.453125 47.707031 87.453125 46.367188 C 87.453125 45.339844 86.921875 45.027344 86.097656 44.742188 L 83.199219 43.742188 C 81.3125 43.089844 80.222656 42.289063 80.222656 39.980469 C 80.222656 36.503906 83.652344 35.308594 86.308594 35.308594 C 89.3125 35.308594 91.996094 36.21875 91.945313 40.011719"/><g clip-path="url(#clip2)" clip-rule="nonzero"><path style="stroke:none;fill-rule:nonzero;fill:#221e1f;fill-opacity:1" d="M 96.515625 30.089844 L 100.289063 30.089844 L 98.882813 37.417969 L 98.933594 37.417969 C 99.519531 36.5625 101.007813 35.308594 103.480469 35.308594 C 106.085938 35.308594 107.492188 36.703125 107.492188 39.269531 C 107.492188 39.867188 107.203125 41.292969 107.09375 41.804688 L 105.394531 50.441406 L 101.621094 50.441406 L 103.292969 41.804688 C 103.402344 41.378906 103.535156 40.410156 103.535156 40.011719 C 103.535156 39.125 102.601563 38.5 101.726563 38.5 C 99.441406 38.5 98.269531 40.550781 97.871094 42.605469 L 96.328125 50.441406 L 92.554688 50.441406"/></g><path style="stroke:none;fill-rule:nonzero;fill:#c4151b;fill-opacity:1" d="M 45.386719 29.546875 L 43.148438 42.179688 C 42.613281 45.136719 41.566406 47.320313 39.996094 48.734375 C 38.433594 50.152344 36.054688 50.859375 32.871094 50.859375 C 31.101563 50.859375 29.683594 50.683594 28.613281 50.328125 C 27.542969 49.976563 26.636719 49.449219 25.890625 48.742188 C 25.140625 48.039063 24.585938 47.234375 24.226563 46.335938 C 23.863281 45.433594 23.667969 44.46875 23.632813 43.441406 C 23.585938 42.132813 23.667969 40.890625 23.882813 39.695313 L 25.664063 29.546875 L 32.074219 29.546875 L 30.003906 41.339844 C 29.910156 41.894531 29.875 42.480469 29.894531 43.097656 C 29.953125 44.757813 30.949219 45.582031 32.886719 45.582031 C 33.90625 45.582031 34.773438 45.265625 35.46875 44.640625 C 36.164063 44.011719 36.671875 42.792969 36.984375 40.980469 L 38.945313 29.546875"/><path style="stroke:none;fill-rule:nonzero;fill:#c4151b;fill-opacity:1" d="M 23.253906 53.707031 L 23.554688 52.355469 L 42.929688 52.355469 L 42.625 53.707031 Z M 23.253906 53.707031"/><path style="stroke:none;fill-rule:nonzero;fill:#c4151b;fill-opacity:1" d="M 44.488281 53.707031 L 44.792969 52.355469 L 105.09375 52.355469 L 104.792969 53.707031 Z M 44.488281 53.707031"/><path style="stroke:none;fill-rule:nonzero;fill:#f89c1b;fill-opacity:1" d="M 22.160156 53.621094 L 8.324219 53.621094 C 8.324219 53.621094 -0.675781 46.289063 0.242188 39.621094 C 0.242188 39.621094 0.804688 36.726563 4.617188 38.914063 L 8.429688 41.539063 C 8.429688 41.539063 9.242188 42.351563 8.617188 43.289063 C 8.617188 43.289063 7.867188 44.476563 6.617188 44.039063 L 3.367188 42.226563 C 3.367188 42.226563 1.367188 41.664063 2.804688 43.164063 C 2.804688 43.164063 7.492188 46.226563 9.492188 44.164063 C 9.492188 44.164063 10.117188 43.226563 9.867188 42.289063 C 9.867188 42.289063 13.742188 42.039063 12.804688 38.976563 C 12.804688 38.976563 12.660156 38.414063 11.910156 37.953125 L 8.324219 35.621094 L 19.824219 35.621094 C 19.824219 35.621094 23.671875 35.035156 22.742188 31.289063 C 22.742188 31.289063 19.992188 29.664063 21.492188 25.851563 C 21.492188 25.851563 22.554688 23.851563 23.554688 23.914063 C 23.554688 23.914063 24.242188 23.789063 24.179688 25.039063 L 24.117188 28.601563 C 24.117188 28.601563 25.054688 29.601563 24.867188 31.289063 C 24.867188 31.289063 22.433594 40.363281 22.984375 44.671875 C 22.984375 44.671875 23.339844 46.574219 23.925781 47.324219 C 23.925781 47.324219 22.242188 53.371094 22.160156 53.621094"/><path style="stroke:none;fill-rule:nonzero;fill:#f89c1b;fill-opacity:1" d="M 1.992188 37.476563 C 1.992188 37.476563 -0.320313 36.789063 0.554688 34.664063 C 0.554688 34.664063 0.992188 33.476563 2.242188 33.414063 C 2.242188 33.414063 3.617188 33.164063 4.742188 34.851563 L 7.242188 35.601563 L 10.742188 38.101563 C 10.742188 38.101563 12.992188 39.601563 11.492188 41.164063 C 11.492188 41.164063 9.554688 41.851563 8.679688 40.664063 L 5.554688 38.539063 C 5.554688 38.539063 4.054688 37.226563 1.992188 37.476563"/><path style="stroke:none;fill-rule:nonzero;fill:#f89c1b;fill-opacity:1" d="M 4.117188 32.476563 C 4.117188 32.476563 0.742188 32.914063 0.242188 31.664063 C 0.242188 31.664063 -0.695313 29.539063 1.117188 28.164063 C 1.117188 28.164063 2.617188 26.726563 4.117188 27.476563 C 4.117188 27.476563 6.179688 28.789063 4.929688 30.101563 C 4.929688 30.101563 3.929688 31.039063 2.742188 31.289063 L 2.617188 31.726563 L 4.117188 31.851563"/><path style="stroke:none;fill-rule:nonzero;fill:#f89c1b;fill-opacity:1" d="M 3.992188 26.539063 C 3.992188 26.539063 0.117188 26.289063 2.054688 23.164063 C 2.054688 23.164063 2.867188 22.164063 3.929688 22.476563"/><path style="fill:none;stroke-width:.34;stroke-linecap:butt;stroke-linejoin:miter;stroke:#221e1f;stroke-opacity:1;stroke-miterlimit:4" d="M 140.78125 666.535938 C 140.78125 666.535938 143.984375 664.7 150.195313 667.590625 C 150.195313 667.590625 159.960938 673.957813 159.960938 675.6375 Z M 140.78125 666.535938" transform="matrix(0.1,0,0,-0.1,0,71.47)"/><path style="fill:none;stroke-width:.34;stroke-linecap:butt;stroke-linejoin:miter;stroke:#221e1f;stroke-opacity:1;stroke-miterlimit:4" d="M 140.78125 666.535938 C 140.78125 666.535938 149.648438 662.551563 159.960938 675.6375 Z M 140.78125 666.535938" transform="matrix(0.1,0,0,-0.1,0,71.47)"/><path style="fill:none;stroke-width:.8;stroke-linecap:butt;stroke-linejoin:miter;stroke:#221e1f;stroke-opacity:1;stroke-dasharray:.404762,.595238;stroke-miterlimit:4" d="M 164.648438 672.2 C 164.648438 654.660938 150.3125 640.403125 132.65625 640.403125 C 114.960938 640.403125 100.664063 654.660938 100.664063 672.2 C 100.664063 689.739063 114.960938 703.996875 132.65625 703.996875 C 150.3125 703.996875 164.648438 689.739063 164.648438 672.2 Z M 164.648438 672.2" transform="matrix(0.1,0,0,-0.1,0,71.47)"/><path style="fill:none;stroke-width:1.06;stroke-linecap:butt;stroke-linejoin:miter;stroke:#221e1f;stroke-opacity:1;stroke-dasharray:.67,.5;stroke-miterlimit:4" d="M 174.921875 672.2 C 174.921875 648.996875 156.015625 630.207813 132.65625 630.207813 C 109.296875 630.207813 90.351563 648.996875 90.351563 672.2 C 90.351563 695.403125 109.296875 714.192188 132.65625 714.192188 C 156.015625 714.192188 174.921875 695.403125 174.921875 672.2 Z M 174.921875 672.2" transform="matrix(0.1,0,0,-0.1,0,71.47)"/><path style="stroke:none;fill-rule:nonzero;fill:#dfe1e2;fill-opacity:1" d="M 13.132813 4.769531 C 13.132813 4.769531 13.355469 4.902344 13.488281 4.769531 C 13.488281 4.769531 13.425781 4.574219 13.777344 4.636719 C 13.777344 4.636719 14.3125 4.804688 14.808594 4.464844 C 14.808594 4.464844 15.875 3.851563 15.988281 3.324219 C 15.988281 3.324219 15.0625 3.386719 14.734375 3.53125 C 14.734375 3.53125 15.097656 2.707031 15.207031 2.476563 C 15.207031 2.476563 15.28125 2.296875 14.988281 2.476563 L 14.296875 2.839844 C 14.296875 2.839844 14.382813 2.125 14.296875 1.910156 C 14.296875 1.910156 13.792969 2.296875 13.625 2.582031 C 13.625 2.582031 13.355469 1.675781 13.292969 1.675781 C 13.292969 1.675781 12.953125 2.050781 12.953125 2.539063 C 12.953125 2.539063 12.324219 1.917969 12.226563 1.917969 L 12.226563 2.855469 C 12.226563 2.855469 11.445313 2.3125 11.316406 2.441406 C 11.316406 2.441406 11.78125 3.417969 11.875 3.507813 C 11.875 3.507813 10.59375 3.234375 10.542969 3.289063 C 10.542969 3.289063 11.449219 5 12.941406 4.585938 C 12.941406 4.585938 13.132813 4.609375 13.132813 4.769531"/><path style="fill:none;stroke-width:.34;stroke-linecap:butt;stroke-linejoin:miter;stroke:#221e1f;stroke-opacity:1;stroke-miterlimit:4" d="M 131.328125 667.004688 C 131.328125 667.004688 133.554688 665.676563 134.882813 667.004688 C 134.882813 667.004688 134.257813 668.957813 137.773438 668.332813 C 137.773438 668.332813 143.125 666.653125 148.085938 670.051563 C 148.085938 670.051563 158.75 676.184375 159.882813 681.457813 C 159.882813 681.457813 150.625 680.832813 147.34375 679.3875 C 147.34375 679.3875 150.976563 687.629688 152.070313 689.934375 C 152.070313 689.934375 152.8125 691.73125 149.882813 689.934375 L 142.96875 686.301563 C 142.96875 686.301563 143.828125 693.45 142.96875 695.598438 C 142.96875 695.598438 137.929688 691.73125 136.25 688.879688 C 136.25 688.879688 133.554688 697.942188 132.929688 697.942188 C 132.929688 697.942188 129.53125 694.192188 129.53125 689.309375 C 129.53125 689.309375 123.242188 695.520313 122.265625 695.520313 L 122.265625 686.145313 C 122.265625 686.145313 114.453125 691.575 113.164063 690.285938 C 113.164063 690.285938 117.8125 680.520313 118.75 679.621875 C 118.75 679.621875 105.9375 682.35625 105.429688 681.809375 C 105.429688 681.809375 114.492188 664.7 129.414063 668.840625 C 129.414063 668.840625 131.328125 668.60625 131.328125 667.004688 Z M 131.328125 667.004688" transform="matrix(0.1,0,0,-0.1,0,71.47)"/><path style="stroke:none;fill-rule:nonzero;fill:#fff;fill-opacity:1" d="M 12.769531 3.761719 L 12.769531 3.375 C 12.769531 3.375 12.203125 2.828125 11.742188 2.71875"/><path style="fill:none;stroke-width:.19;stroke-linecap:butt;stroke-linejoin:miter;stroke:#221e1f;stroke-opacity:1;stroke-miterlimit:4" d="M 127.695313 677.082813 L 127.695313 680.95 C 127.695313 680.95 122.03125 686.41875 117.421875 687.5125 Z M 127.695313 677.082813" transform="matrix(0.1,0,0,-0.1,0,71.47)"/><path style="fill:none;stroke-width:.34;stroke-linecap:butt;stroke-linejoin:miter;stroke:#221e1f;stroke-opacity:1;stroke-miterlimit:4" d="M 137.304688 669.348438 C 137.304688 669.348438 140.546875 667.5125 146.757813 670.403125 C 146.757813 670.403125 156.523438 676.770313 156.523438 678.489063 Z M 137.304688 669.348438" transform="matrix(0.1,0,0,-0.1,0,71.47)"/><path style="fill:none;stroke-width:.34;stroke-linecap:butt;stroke-linejoin:miter;stroke:#221e1f;stroke-opacity:1;stroke-miterlimit:4" d="M 137.304688 669.348438 C 137.304688 669.348438 146.210938 665.403125 156.523438 678.489063 Z M 137.304688 669.348438" transform="matrix(0.1,0,0,-0.1,0,71.47)"/><path style="stroke:none;fill-rule:nonzero;fill:#fff;fill-opacity:1" d="M 12.675781 3.796875 L 11.640625 2.761719 L 12.140625 3.628906"/><path style="fill:none;stroke-width:.34;stroke-linecap:butt;stroke-linejoin:miter;stroke:#221e1f;stroke-opacity:1;stroke-miterlimit:4" d="M 126.757813 676.73125 L 116.40625 687.082813 L 121.40625 678.410938 Z M 126.757813 676.73125" transform="matrix(0.1,0,0,-0.1,0,71.47)"/><path style="stroke:none;fill-rule:nonzero;fill:#fff;fill-opacity:1" d="M 13.230469 4.609375 L 13.230469 2.246094 C 13.230469 2.246094 12.796875 3.613281 12.941406 4.445313 C 12.941406 4.445313 13.292969 4.550781 13.230469 4.609375"/><path style="fill:none;stroke-width:.34;stroke-linecap:butt;stroke-linejoin:miter;stroke:#221e1f;stroke-opacity:1;stroke-miterlimit:4" d="M 132.304688 668.60625 L 132.304688 692.239063 C 132.304688 692.239063 127.96875 678.567188 129.414063 670.246875 C 129.414063 670.246875 132.929688 669.192188 132.304688 668.60625 Z M 132.304688 668.60625" transform="matrix(0.1,0,0,-0.1,0,71.47)"/><path style="stroke:none;fill-rule:nonzero;fill:#fff;fill-opacity:1" d="M 13.371094 4.636719 L 13.371094 2.273438 C 13.371094 2.273438 13.8125 3.636719 13.664063 4.46875 C 13.664063 4.46875 13.3125 4.574219 13.371094 4.636719"/><path style="fill:none;stroke-width:.34;stroke-linecap:butt;stroke-linejoin:miter;stroke:#221e1f;stroke-opacity:1;stroke-miterlimit:4" d="M 133.710938 668.332813 L 133.710938 691.965625 C 133.710938 691.965625 138.125 678.332813 136.640625 670.0125 C 136.640625 670.0125 133.125 668.957813 133.710938 668.332813 Z M 133.710938 668.332813" transform="matrix(0.1,0,0,-0.1,0,71.47)"/><path style="stroke:none;fill-rule:nonzero;fill:#fff;fill-opacity:1" d="M 13.789063 4.34375 L 13.789063 4.101563 C 13.789063 4.101563 14.78125 3.59375 15.546875 3.53125 C 15.546875 3.53125 13.890625 4.445313 13.789063 4.34375"/><path style="fill:none;stroke-width:.34;stroke-linecap:butt;stroke-linejoin:miter;stroke:#221e1f;stroke-opacity:1;stroke-miterlimit:4" d="M 137.890625 671.2625 L 137.890625 673.684375 C 137.890625 673.684375 147.8125 678.7625 155.46875 679.3875 C 155.46875 679.3875 138.90625 670.246875 137.890625 671.2625 Z M 137.890625 671.2625" transform="matrix(0.1,0,0,-0.1,0,71.47)"/><path style="stroke:none;fill-rule:nonzero;fill:#fff;fill-opacity:1" d="M 12.453125 2.996094 L 12.386719 2.378906 L 12.769531 3.203125"/><path style="fill:none;stroke-width:.34;stroke-linecap:butt;stroke-linejoin:miter;stroke:#221e1f;stroke-opacity:1;stroke-miterlimit:4" d="M 124.53125 684.739063 L 123.867188 690.910938 L 127.695313 682.66875 Z M 124.53125 684.739063" transform="matrix(0.1,0,0,-0.1,0,71.47)"/><path style="stroke:none;fill-rule:nonzero;fill:#fff;fill-opacity:1" d="M 12.445313 2.25 C 12.539063 2.25 12.933594 2.746094 12.933594 2.746094 L 12.855469 3.085938"/><path style="fill:none;stroke-width:.34;stroke-linecap:butt;stroke-linejoin:miter;stroke:#221e1f;stroke-opacity:1;stroke-miterlimit:4" d="M 124.453125 692.2 C 125.390625 692.2 129.335938 687.239063 129.335938 687.239063 L 128.554688 683.840625 Z M 124.453125 692.2" transform="matrix(0.1,0,0,-0.1,0,71.47)"/><path style="stroke:none;fill-rule:nonzero;fill:#fff;fill-opacity:1" d="M 14.945313 2.804688 L 14.46875 3.691406 L 13.851563 3.90625"/><path style="fill:none;stroke-width:.34;stroke-linecap:butt;stroke-linejoin:miter;stroke:#221e1f;stroke-opacity:1;stroke-miterlimit:4" d="M 149.453125 686.653125 L 144.6875 677.785938 L 138.515625 675.6375 Z M 149.453125 686.653125" transform="matrix(0.1,0,0,-0.1,0,71.47)"/><path style="stroke:none;fill-rule:nonzero;fill:#fff;fill-opacity:1" d="M 12.8125 4.460938 L 10.90625 3.554688 C 10.90625 3.554688 12.167969 4.9375 12.8125 4.460938"/><path style="fill:none;stroke-width:.34;stroke-linecap:butt;stroke-linejoin:miter;stroke:#221e1f;stroke-opacity:1;stroke-miterlimit:4" d="M 128.125 670.090625 L 109.0625 679.153125 C 109.0625 679.153125 121.679688 665.325 128.125 670.090625 Z M 128.125 670.090625" transform="matrix(0.1,0,0,-0.1,0,71.47)"/><path style="stroke:none;fill-rule:nonzero;fill:#fff;fill-opacity:1" d="M 12.820313 4.34375 L 12.820313 4.078125 C 12.820313 4.078125 11.617188 3.472656 11.027344 3.472656"/><path style="fill:none;stroke-width:.34;stroke-linecap:butt;stroke-linejoin:miter;stroke:#221e1f;stroke-opacity:1;stroke-miterlimit:4" d="M 128.203125 671.2625 L 128.203125 673.91875 C 128.203125 673.91875 116.171875 679.973438 110.273438 679.973438 Z M 128.203125 671.2625" transform="matrix(0.1,0,0,-0.1,0,71.47)"/><path style="stroke:none;fill-rule:nonzero;fill:#fff;fill-opacity:1" d="M 13.730469 4.535156 L 15.652344 3.621094 C 15.652344 3.621094 14.546875 4.875 13.730469 4.535156"/><path style="fill:none;stroke-width:.34;stroke-linecap:butt;stroke-linejoin:miter;stroke:#221e1f;stroke-opacity:1;stroke-miterlimit:4" d="M 137.304688 669.348438 L 156.523438 678.489063 C 156.523438 678.489063 145.46875 665.95 137.304688 669.348438 Z M 137.304688 669.348438" transform="matrix(0.1,0,0,-0.1,0,71.47)"/><path style="stroke:none;fill-rule:nonzero;fill:#fff;fill-opacity:1" d="M 13.777344 3.847656 L 13.777344 3.445313 L 14.78125 2.707031"/><path style="fill:none;stroke-width:.34;stroke-linecap:butt;stroke-linejoin:miter;stroke:#221e1f;stroke-opacity:1;stroke-miterlimit:4" d="M 137.773438 676.223438 L 137.773438 680.246875 L 147.8125 687.629688 Z M 137.773438 676.223438" transform="matrix(0.1,0,0,-0.1,0,71.47)"/><path style="stroke:none;fill-rule:nonzero;fill:#fff;fill-opacity:1" d="M 13.839844 3.191406 L 14.214844 2.308594 L 14.167969 2.949219"/><path style="fill:none;stroke-width:.34;stroke-linecap:butt;stroke-linejoin:miter;stroke:#221e1f;stroke-opacity:1;stroke-miterlimit:4" d="M 138.398438 682.785938 L 142.148438 691.614063 L 141.679688 685.207813 Z M 138.398438 682.785938" transform="matrix(0.1,0,0,-0.1,0,71.47)"/><path style="stroke:none;fill-rule:nonzero;fill:#fff;fill-opacity:1" d="M 14.09375 2.320313 L 13.742188 3.167969 C 13.742188 3.167969 13.558594 2.960938 13.742188 2.671875"/><path style="fill:none;stroke-width:.34;stroke-linecap:butt;stroke-linejoin:miter;stroke:#221e1f;stroke-opacity:1;stroke-miterlimit:4" d="M 140.9375 691.496875 L 137.421875 683.020313 C 137.421875 683.020313 135.585938 685.090625 137.421875 687.98125 Z M 140.9375 691.496875" transform="matrix(0.1,0,0,-0.1,0,71.47)"/><path style="stroke:none;fill-rule:nonzero;fill:#dfe1e2;fill-opacity:1" d="M 10.769531 4.792969 C 10.769531 4.792969 11 4.683594 11.402344 4.863281 C 11.402344 4.863281 12.054688 4.625 12.296875 4.863281 C 12.296875 4.863281 12.855469 4.648438 13.207031 4.863281 C 13.207031 4.863281 13.789063 4.804688 13.839844 4.757813 C 13.839844 4.757813 14.214844 4.960938 14.46875 4.828125 C 14.46875 4.828125 14.929688 4.78125 15.183594 4.890625 C 15.183594 4.890625 15.414063 4.960938 15.59375 4.78125 L 15.839844 4.78125 C 15.839844 4.78125 15.921875 4.960938 15.742188 5.011719 L 15.222656 5.121094 C 15.222656 5.121094 14.976563 5.167969 14.820313 5.011719 C 14.820313 5.011719 14.070313 5.253906 13.824219 5.011719 C 13.824219 5.011719 13.132813 5.207031 12.941406 5.011719 C 12.941406 5.011719 12.511719 4.992188 12.40625 5.097656 C 12.40625 5.097656 12.140625 5.121094 12.019531 5 C 12.019531 5 11.671875 5.003906 11.605469 5.070313 C 11.605469 5.070313 11.253906 5.183594 11.035156 4.964844 L 10.804688 4.964844"/><path style="fill:none;stroke-width:.34;stroke-linecap:butt;stroke-linejoin:miter;stroke:#221e1f;stroke-opacity:1;stroke-miterlimit:4" d="M 107.695313 666.770313 C 107.695313 666.770313 110 667.864063 114.023438 666.067188 C 114.023438 666.067188 120.546875 668.45 122.96875 666.067188 C 122.96875 666.067188 128.554688 668.215625 132.070313 666.067188 C 132.070313 666.067188 137.890625 666.653125 138.398438 667.121875 C 138.398438 667.121875 142.148438 665.090625 144.6875 666.41875 C 144.6875 666.41875 149.296875 666.8875 151.835938 665.79375 C 151.835938 665.79375 154.140625 665.090625 155.9375 666.8875 L 158.398438 666.8875 C 158.398438 666.8875 159.21875 665.090625 157.421875 664.582813 L 152.226563 663.489063 C 152.226563 663.489063 149.765625 663.020313 148.203125 664.582813 C 148.203125 664.582813 140.703125 662.160938 138.242188 664.582813 C 138.242188 664.582813 131.328125 662.629688 129.414063 664.582813 C 129.414063 664.582813 125.117188 664.778125 124.0625 663.723438 C 124.0625 663.723438 121.40625 663.489063 120.195313 664.7 C 120.195313 664.7 116.71875 664.660938 116.054688 663.996875 C 116.054688 663.996875 112.539063 662.864063 110.351563 665.051563 L 108.046875 665.051563 Z M 107.695313 666.770313" transform="matrix(0.1,0,0,-0.1,0,71.47)"/><path style="stroke:none;fill-rule:nonzero;fill:#dfe1e2;fill-opacity:1" d="M 10.898438 5.242188 C 10.898438 5.242188 11.113281 5.15625 11.488281 5.304688 C 11.488281 5.304688 12.101563 5.105469 12.332031 5.304688 C 12.332031 5.304688 12.855469 5.125 13.183594 5.304688 C 13.183594 5.304688 13.730469 5.253906 13.777344 5.214844 C 13.777344 5.214844 14.128906 5.382813 14.367188 5.273438 C 14.367188 5.273438 14.800781 5.234375 15.039063 5.324219 C 15.039063 5.324219 15.257813 5.382813 15.421875 5.234375 L 15.65625 5.234375 C 15.65625 5.234375 15.734375 5.382813 15.5625 5.421875 L 15.074219 5.511719 C 15.074219 5.511719 14.847656 5.550781 14.699219 5.421875 C 14.699219 5.421875 13.992188 5.621094 13.765625 5.421875 C 13.765625 5.421875 13.117188 5.582031 12.933594 5.421875 C 12.933594 5.421875 12.53125 5.40625 12.433594 5.492188 C 12.433594 5.492188 12.183594 5.511719 12.070313 5.414063 C 12.070313 5.414063 11.746094 5.417969 11.683594 5.472656 C 11.683594 5.472656 11.351563 5.566406 11.144531 5.382813 L 10.929688 5.382813"/><path style="fill:none;stroke-width:.34;stroke-linecap:butt;stroke-linejoin:miter;stroke:#221e1f;stroke-opacity:1;stroke-miterlimit:4" d="M 108.984375 662.278125 C 108.984375 662.278125 111.132813 663.1375 114.882813 661.653125 C 114.882813 661.653125 121.015625 663.645313 123.320313 661.653125 C 123.320313 661.653125 128.554688 663.45 131.835938 661.653125 C 131.835938 661.653125 137.304688 662.160938 137.773438 662.551563 C 137.773438 662.551563 141.289063 660.871875 143.671875 661.965625 C 143.671875 661.965625 148.007813 662.35625 150.390625 661.457813 C 150.390625 661.457813 152.578125 660.871875 154.21875 662.35625 L 156.5625 662.35625 C 156.5625 662.35625 157.34375 660.871875 155.625 660.48125 L 150.742188 659.582813 C 150.742188 659.582813 148.476563 659.192188 146.992188 660.48125 C 146.992188 660.48125 139.921875 658.489063 137.65625 660.48125 C 137.65625 660.48125 131.171875 658.879688 129.335938 660.48125 C 129.335938 660.48125 125.3125 660.6375 124.335938 659.778125 C 124.335938 659.778125 121.835938 659.582813 120.703125 660.559375 C 120.703125 660.559375 117.460938 660.520313 116.835938 659.973438 C 116.835938 659.973438 113.515625 659.035938 111.445313 660.871875 L 109.296875 660.871875 Z M 108.984375 662.278125" transform="matrix(0.1,0,0,-0.1,0,71.47)"/><path style="stroke:none;fill-rule:nonzero;fill:#dfe1e2;fill-opacity:1" d="M 11.316406 5.863281 C 11.316406 5.863281 11.492188 5.957031 11.804688 5.800781 C 11.804688 5.800781 12.308594 6.007813 12.496094 5.800781 C 12.496094 5.800781 12.925781 5.984375 13.199219 5.800781 C 13.199219 5.800781 13.644531 5.851563 13.683594 5.894531 C 13.683594 5.894531 13.972656 5.722656 14.167969 5.832031 C 14.167969 5.832031 14.523438 5.875 14.722656 5.78125 C 14.722656 5.78125 14.898438 5.722656 15.035156 5.875 L 15.226563 5.875 C 15.226563 5.875 15.289063 5.722656 15.152344 5.679688 L 14.75 5.589844 C 14.75 5.589844 14.5625 5.546875 14.441406 5.679688 C 14.441406 5.679688 13.859375 5.476563 13.671875 5.679688 C 13.671875 5.679688 13.140625 5.515625 12.992188 5.679688 C 12.992188 5.679688 12.660156 5.695313 12.578125 5.609375 C 12.578125 5.609375 12.375 5.589844 12.28125 5.691406 C 12.28125 5.691406 12.015625 5.683594 11.964844 5.628906 C 11.964844 5.628906 11.691406 5.535156 11.523438 5.71875 L 11.34375 5.71875"/><path style="fill:none;stroke-width:.34;stroke-linecap:butt;stroke-linejoin:miter;stroke:#221e1f;stroke-opacity:1;stroke-miterlimit:4" d="M 113.164063 656.067188 C 113.164063 656.067188 114.921875 655.129688 118.046875 656.692188 C 118.046875 656.692188 123.085938 654.621875 124.960938 656.692188 C 124.960938 656.692188 129.257813 654.85625 131.992188 656.692188 C 131.992188 656.692188 136.445313 656.184375 136.835938 655.754688 C 136.835938 655.754688 139.726563 657.473438 141.679688 656.379688 C 141.679688 656.379688 145.234375 655.95 147.226563 656.8875 C 147.226563 656.8875 148.984375 657.473438 150.351563 655.95 L 152.265625 655.95 C 152.265625 655.95 152.890625 657.473438 151.523438 657.903125 L 147.5 658.801563 C 147.5 658.801563 145.625 659.23125 144.414063 657.903125 C 144.414063 657.903125 138.59375 659.934375 136.71875 657.903125 C 136.71875 657.903125 131.40625 659.54375 129.921875 657.903125 C 129.921875 657.903125 126.601563 657.746875 125.78125 658.60625 C 125.78125 658.60625 123.75 658.801563 122.8125 657.785938 C 122.8125 657.785938 120.15625 657.864063 119.648438 658.410938 C 119.648438 658.410938 116.914063 659.348438 115.234375 657.5125 L 113.4375 657.5125 Z M 113.164063 656.067188" transform="matrix(0.1,0,0,-0.1,0,71.47)"/><path style="stroke:none;fill-rule:nonzero;fill:#dfe1e2;fill-opacity:1" d="M 12.46875 6.296875 C 12.46875 6.296875 12.84375 6.175781 13.121094 6.296875 C 13.121094 6.296875 13.355469 6.394531 13.644531 6.222656 C 13.644531 6.222656 14.371094 6.394531 14.457031 6.308594 C 14.457031 6.308594 14.890625 6.308594 14.847656 6.078125 L 14.589844 6.078125 C 14.589844 6.078125 13.972656 6.210938 13.765625 6.003906 C 13.765625 6.003906 13.230469 6.164063 13.171875 6.101563 C 13.171875 6.101563 12.6875 5.859375 12.445313 6.101563 C 12.445313 6.101563 11.792969 5.90625 11.75 6.101563 C 11.75 6.101563 11.8125 6.296875 12.46875 6.296875"/><path style="fill:none;stroke-width:.34;stroke-linecap:butt;stroke-linejoin:miter;stroke:#221e1f;stroke-opacity:1;stroke-miterlimit:4" d="M 124.6875 651.73125 C 124.6875 651.73125 128.4375 652.942188 131.210938 651.73125 C 131.210938 651.73125 133.554688 650.754688 136.445313 652.473438 C 136.445313 652.473438 143.710938 650.754688 144.570313 651.614063 C 144.570313 651.614063 148.90625 651.614063 148.476563 653.91875 L 145.898438 653.91875 C 145.898438 653.91875 139.726563 652.590625 137.65625 654.660938 C 137.65625 654.660938 132.304688 653.059375 131.71875 653.684375 C 131.71875 653.684375 126.875 656.10625 124.453125 653.684375 C 124.453125 653.684375 117.929688 655.6375 117.5 653.684375 C 117.5 653.684375 118.125 651.73125 124.6875 651.73125 Z M 124.6875 651.73125" transform="matrix(0.1,0,0,-0.1,0,71.47)"/><path style="stroke:none;fill-rule:nonzero;fill:#dfe1e2;fill-opacity:1" d="M 12.664063 6.464844 C 12.664063 6.464844 12.515625 6.597656 13.074219 6.597656 C 13.074219 6.597656 13.570313 6.722656 13.984375 6.527344 C 13.984375 6.527344 13.972656 6.332031 13.558594 6.429688 C 13.558594 6.429688 13.183594 6.539063 13.074219 6.429688 C 13.074219 6.429688 12.664063 6.398438 12.664063 6.464844"/><path style="fill:none;stroke-width:.34;stroke-linecap:butt;stroke-linejoin:miter;stroke:#221e1f;stroke-opacity:1;stroke-miterlimit:4" d="M 126.640625 650.051563 C 126.640625 650.051563 125.15625 648.723438 130.742188 648.723438 C 130.742188 648.723438 135.703125 647.473438 139.84375 649.426563 C 139.84375 649.426563 139.726563 651.379688 135.585938 650.403125 C 135.585938 650.403125 131.835938 649.309375 130.742188 650.403125 C 130.742188 650.403125 126.640625 650.715625 126.640625 650.051563 Z M 126.640625 650.051563" transform="matrix(0.1,0,0,-0.1,0,71.47)"/><path style="stroke:none;fill-rule:nonzero;fill:#221e1f;fill-opacity:1" d="M 4.742188 27.121094 L 4.742188 9.539063 C 4.742188 9.539063 5.074219 5.621094 8.910156 5.121094 L 18.492188 5.121094 C 18.492188 5.121094 21.910156 5.539063 21.992188 9.621094 L 21.992188 23.707031 C 21.992188 23.707031 18.742188 27.703125 21.742188 31.539063 C 21.742188 31.539063 22.742188 34.351563 20.179688 34.476563 L 6.304688 34.476563 C 6.304688 34.476563 4.617188 34.476563 5.304688 31.726563 C 5.304688 31.726563 7.617188 28.957031 4.742188 27.121094"/><path style="stroke:none;fill-rule:nonzero;fill:#fff;fill-opacity:1" d="M 6.992188 21.726563 L 19.429688 21.726563 L 19.429688 10.226563 L 6.992188 10.226563 Z M 6.992188 21.726563"/><path style="stroke:none;fill-rule:nonzero;fill:#fff;fill-opacity:1" d="M 9.554688 8.726563 C 9.554688 9.035156 9.300781 9.289063 8.992188 9.289063 C 8.679688 9.289063 8.429688 9.035156 8.429688 8.726563 C 8.429688 8.414063 8.679688 8.164063 8.992188 8.164063 C 9.300781 8.164063 9.554688 8.414063 9.554688 8.726563"/><path style="stroke:none;fill-rule:nonzero;fill:#fff;fill-opacity:1" d="M 7.742188 6.539063 C 7.742188 6.746094 7.574219 6.914063 7.367188 6.914063 C 7.160156 6.914063 6.992188 6.746094 6.992188 6.539063 C 6.992188 6.332031 7.160156 6.164063 7.367188 6.164063 C 7.574219 6.164063 7.742188 6.332031 7.742188 6.539063"/><path style="stroke:none;fill-rule:nonzero;fill:#fff;fill-opacity:1" d="M 9.742188 24.289063 C 9.742188 24.632813 9.460938 24.914063 9.117188 24.914063 L 7.90625 24.914063 C 7.5625 24.914063 7.28125 24.632813 7.28125 24.289063 C 7.28125 23.941406 7.5625 23.664063 7.90625 23.664063 L 9.117188 23.664063 C 9.460938 23.664063 9.742188 23.941406 9.742188 24.289063"/><path style="stroke:none;fill-rule:nonzero;fill:#fff;fill-opacity:1" d="M 12.949219 24.289063 C 12.949219 24.632813 12.667969 24.914063 12.324219 24.914063 L 11.117188 24.914063 C 10.769531 24.914063 10.492188 24.632813 10.492188 24.289063 C 10.492188 23.941406 10.769531 23.664063 11.117188 23.664063 L 12.324219 23.664063 C 12.667969 23.664063 12.949219 23.941406 12.949219 24.289063"/><path style="stroke:none;fill-rule:nonzero;fill:#fff;fill-opacity:1" d="M 16.15625 24.289063 C 16.15625 24.632813 15.878906 24.914063 15.53125 24.914063 L 14.324219 24.914063 C 13.976563 24.914063 13.699219 24.632813 13.699219 24.289063 C 13.699219 23.941406 13.976563 23.664063 14.324219 23.664063 L 15.53125 23.664063 C 15.878906 23.664063 16.15625 23.941406 16.15625 24.289063"/><path style="stroke:none;fill-rule:nonzero;fill:#fff;fill-opacity:1" d="M 19.363281 24.289063 C 19.363281 24.632813 19.085938 24.914063 18.738281 24.914063 L 17.53125 24.914063 C 17.1875 24.914063 16.90625 24.632813 16.90625 24.289063 C 16.90625 23.941406 17.1875 23.664063 17.53125 23.664063 L 18.738281 23.664063 C 19.085938 23.664063 19.363281 23.941406 19.363281 24.289063"/><path style="stroke:none;fill-rule:nonzero;fill:#fff;fill-opacity:1" d="M 9.742188 26.789063 C 9.742188 27.132813 9.460938 27.414063 9.117188 27.414063 L 7.90625 27.414063 C 7.5625 27.414063 7.28125 27.132813 7.28125 26.789063 C 7.28125 26.441406 7.5625 26.164063 7.90625 26.164063 L 9.117188 26.164063 C 9.460938 26.164063 9.742188 26.441406 9.742188 26.789063"/><path style="stroke:none;fill-rule:nonzero;fill:#fff;fill-opacity:1" d="M 12.949219 26.789063 C 12.949219 27.132813 12.667969 27.414063 12.324219 27.414063 L 11.117188 27.414063 C 10.769531 27.414063 10.492188 27.132813 10.492188 26.789063 C 10.492188 26.441406 10.769531 26.164063 11.117188 26.164063 L 12.324219 26.164063 C 12.667969 26.164063 12.949219 26.441406 12.949219 26.789063"/><path style="stroke:none;fill-rule:nonzero;fill:#fff;fill-opacity:1" d="M 16.15625 26.789063 C 16.15625 27.132813 15.878906 27.414063 15.53125 27.414063 L 14.324219 27.414063 C 13.976563 27.414063 13.699219 27.132813 13.699219 26.789063 C 13.699219 26.441406 13.976563 26.164063 14.324219 26.164063 L 15.53125 26.164063 C 15.878906 26.164063 16.15625 26.441406 16.15625 26.789063"/><path style="stroke:none;fill-rule:nonzero;fill:#fff;fill-opacity:1" d="M 19.363281 26.789063 C 19.363281 27.132813 19.085938 27.414063 18.738281 27.414063 L 17.53125 27.414063 C 17.1875 27.414063 16.90625 27.132813 16.90625 26.789063 C 16.90625 26.441406 17.1875 26.164063 17.53125 26.164063 L 18.738281 26.164063 C 19.085938 26.164063 19.363281 26.441406 19.363281 26.789063"/><path style="stroke:none;fill-rule:nonzero;fill:#fff;fill-opacity:1" d="M 9.742188 29.289063 C 9.742188 29.632813 9.460938 29.914063 9.117188 29.914063 L 7.90625 29.914063 C 7.5625 29.914063 7.28125 29.632813 7.28125 29.289063 C 7.28125 28.941406 7.5625 28.664063 7.90625 28.664063 L 9.117188 28.664063 C 9.460938 28.664063 9.742188 28.941406 9.742188 29.289063"/><path style="stroke:none;fill-rule:nonzero;fill:#fff;fill-opacity:1" d="M 12.949219 29.289063 C 12.949219 29.632813 12.667969 29.914063 12.324219 29.914063 L 11.117188 29.914063 C 10.769531 29.914063 10.492188 29.632813 10.492188 29.289063 C 10.492188 28.941406 10.769531 28.664063 11.117188 28.664063 L 12.324219 28.664063 C 12.667969 28.664063 12.949219 28.941406 12.949219 29.289063"/><path style="stroke:none;fill-rule:nonzero;fill:#fff;fill-opacity:1" d="M 16.15625 29.289063 C 16.15625 29.632813 15.878906 29.914063 15.53125 29.914063 L 14.324219 29.914063 C 13.976563 29.914063 13.699219 29.632813 13.699219 29.289063 C 13.699219 28.941406 13.976563 28.664063 14.324219 28.664063 L 15.53125 28.664063 C 15.878906 28.664063 16.15625 28.941406 16.15625 29.289063"/><path style="stroke:none;fill-rule:nonzero;fill:#fff;fill-opacity:1" d="M 19.363281 29.289063 C 19.363281 29.632813 19.085938 29.914063 18.738281 29.914063 L 17.53125 29.914063 C 17.1875 29.914063 16.90625 29.632813 16.90625 29.289063 C 16.90625 28.941406 17.1875 28.664063 17.53125 28.664063 L 18.738281 28.664063 C 19.085938 28.664063 19.363281 28.941406 19.363281 29.289063"/><path style="stroke:none;fill-rule:nonzero;fill:#fff;fill-opacity:1" d="M 9.742188 31.789063 C 9.742188 32.132813 9.460938 32.414063 9.117188 32.414063 L 7.90625 32.414063 C 7.5625 32.414063 7.28125 32.132813 7.28125 31.789063 C 7.28125 31.441406 7.5625 31.164063 7.90625 31.164063 L 9.117188 31.164063 C 9.460938 31.164063 9.742188 31.441406 9.742188 31.789063"/><path style="stroke:none;fill-rule:nonzero;fill:#fff;fill-opacity:1" d="M 12.949219 31.789063 C 12.949219 32.132813 12.667969 32.414063 12.324219 32.414063 L 11.117188 32.414063 C 10.769531 32.414063 10.492188 32.132813 10.492188 31.789063 C 10.492188 31.441406 10.769531 31.164063 11.117188 31.164063 L 12.324219 31.164063 C 12.667969 31.164063 12.949219 31.441406 12.949219 31.789063"/><path style="stroke:none;fill-rule:nonzero;fill:#fff;fill-opacity:1" d="M 16.15625 31.789063 C 16.15625 32.132813 15.878906 32.414063 15.53125 32.414063 L 14.324219 32.414063 C 13.976563 32.414063 13.699219 32.132813 13.699219 31.789063 C 13.699219 31.441406 13.976563 31.164063 14.324219 31.164063 L 15.53125 31.164063 C 15.878906 31.164063 16.15625 31.441406 16.15625 31.789063"/><path style="stroke:none;fill-rule:nonzero;fill:#fff;fill-opacity:1" d="M 19.363281 31.789063 C 19.363281 32.132813 19.085938 32.414063 18.738281 32.414063 L 17.53125 32.414063 C 17.1875 32.414063 16.90625 32.132813 16.90625 31.789063 C 16.90625 31.441406 17.1875 31.164063 17.53125 31.164063 L 18.738281 31.164063 C 19.085938 31.164063 19.363281 31.441406 19.363281 31.789063"/><path style="stroke:none;fill-rule:nonzero;fill:#fff;fill-opacity:1" d="M 15.804688 7.757813 C 15.804688 8.257813 15.398438 8.664063 14.898438 8.664063 L 11.773438 8.664063 C 11.273438 8.664063 10.867188 8.257813 10.867188 7.757813 C 10.867188 7.257813 11.273438 6.851563 11.773438 6.851563 L 14.898438 6.851563 C 15.398438 6.851563 15.804688 7.257813 15.804688 7.757813"/></g></svg>