<svg width="32" height="32" viewBox="0 0 32 32" fill="none" xmlns="http://www.w3.org/2000/svg">
<path d="M19.41 25.49C19.1462 25.4862 18.8946 25.3784 18.71 25.19L13.05 19.54C12.5844 19.0756 12.2149 18.5238 11.9629 17.9163C11.7108 17.3089 11.5811 16.6577 11.5811 16C11.5811 15.3423 11.7108 14.6911 11.9629 14.0837C12.2149 13.4762 12.5844 12.9245 13.05 12.46L18.71 6.81001C18.9013 6.64618 19.1474 6.56057 19.399 6.5703C19.6507 6.58002 19.8895 6.68435 20.0676 6.86244C20.2457 7.04054 20.35 7.27928 20.3597 7.53095C20.3694 7.78263 20.2838 8.02871 20.12 8.22001L14.46 13.88C13.8982 14.4425 13.5826 15.205 13.5826 16C13.5826 16.795 13.8982 17.5575 14.46 18.12L20.12 23.78C20.3062 23.9674 20.4108 24.2208 20.4108 24.485C20.4108 24.7492 20.3062 25.0026 20.12 25.19C20.0274 25.2845 19.9169 25.3597 19.7951 25.4112C19.6732 25.4627 19.5423 25.4895 19.41 25.49Z" fill="black"/>
</svg>
