<svg width="32" height="32" viewBox="0 0 32 32" fill="none" xmlns="http://www.w3.org/2000/svg">
<path d="M27.0001 14H25.4901C25.2682 14.0095 25.0495 13.9449 24.8684 13.8163C24.6874 13.6877 24.5542 13.5026 24.4901 13.29L22.8101 7.56C22.4995 6.52723 21.8633 5.62257 20.9964 4.98098C20.1296 4.3394 19.0785 3.99529 18.0001 4H9.71006C8.71152 4.00023 7.73593 4.29944 6.90895 4.85907C6.08198 5.4187 5.44151 6.21313 5.07006 7.14L2.22006 14.27C2.07248 14.6248 1.99766 15.0057 2.00006 15.39V20C2.00009 21.1717 2.41161 22.3062 3.16279 23.2054C3.91396 24.1046 4.95708 24.7114 6.11006 24.92C6.31774 25.7873 6.8093 26.5603 7.50664 27.1162C8.20397 27.6721 9.06708 27.9791 9.95884 27.9882C10.8506 27.9974 11.7198 27.7084 12.4285 27.1669C13.1371 26.6255 13.6445 25.8628 13.8701 25H18.1301C18.3538 25.856 18.855 26.6137 19.5553 27.1544C20.2555 27.6952 21.1153 27.9885 22.0001 27.9885C22.8848 27.9885 23.7446 27.6952 24.4449 27.1544C25.1451 26.6137 25.6463 25.856 25.8701 25H27.0001C27.7957 25 28.5588 24.6839 29.1214 24.1213C29.684 23.5587 30.0001 22.7957 30.0001 22V17C30.0001 16.2044 29.684 15.4413 29.1214 14.8787C28.5588 14.3161 27.7957 14 27.0001 14ZM10.0001 26C9.60449 26 9.21781 25.8827 8.88892 25.6629C8.56002 25.4432 8.30367 25.1308 8.1523 24.7654C8.00092 24.3999 7.96131 23.9978 8.03849 23.6098C8.11566 23.2219 8.30614 22.8655 8.58584 22.5858C8.86555 22.3061 9.22191 22.1156 9.60988 22.0384C9.99784 21.9613 10.4 22.0009 10.7654 22.1522C11.1309 22.3036 11.4432 22.56 11.663 22.8889C11.8828 23.2178 12.0001 23.6044 12.0001 24C12.0001 24.5304 11.7893 25.0391 11.4143 25.4142C11.0392 25.7893 10.5305 26 10.0001 26ZM15.0001 14H4.47006L6.92006 7.89C7.14236 7.33181 7.52716 6.85322 8.02461 6.51624C8.52205 6.17927 9.10922 5.99942 9.71006 6H15.0001V14ZM17.0001 14V6H18.0001C18.65 5.9944 19.2842 6.20004 19.8072 6.58598C20.3302 6.97192 20.7137 7.51729 20.9001 8.14L22.6101 13.86C22.6258 13.9084 22.6459 13.9552 22.6701 14H17.0001ZM22.0001 26C21.6045 26 21.2178 25.8827 20.8889 25.6629C20.56 25.4432 20.3037 25.1308 20.1523 24.7654C20.0009 24.3999 19.9613 23.9978 20.0385 23.6098C20.1157 23.2219 20.3061 22.8655 20.5858 22.5858C20.8655 22.3061 21.2219 22.1156 21.6099 22.0384C21.9978 21.9613 22.4 22.0009 22.7654 22.1522C23.1309 22.3036 23.4432 22.56 23.663 22.8889C23.8828 23.2178 24.0001 23.6044 24.0001 24C24.0001 24.5304 23.7893 25.0391 23.4143 25.4142C23.0392 25.7893 22.5305 26 22.0001 26ZM28.0001 20H27.0001C26.7348 20 26.4805 19.8946 26.2929 19.7071C26.1054 19.5196 26.0001 19.2652 26.0001 19C26.0001 18.7348 26.1054 18.4804 26.2929 18.2929C26.4805 18.1054 26.7348 18 27.0001 18H28.0001V20Z" fill="black"/>
</svg>
