<svg width="32" height="32" viewBox="0 0 32 32" fill="none" xmlns="http://www.w3.org/2000/svg">
<path d="M23 28H9C7.67392 28 6.40215 27.4732 5.46447 26.5355C4.52678 25.5979 4 24.3261 4 23V9C4 7.67392 4.52678 6.40215 5.46447 5.46447C6.40215 4.52678 7.67392 4 9 4H17C17.2652 4 17.5196 4.10536 17.7071 4.29289C17.8946 4.48043 18 4.73478 18 5C18 5.26522 17.8946 5.51957 17.7071 5.70711C17.5196 5.89464 17.2652 6 17 6H9C8.20435 6 7.44129 6.31607 6.87868 6.87868C6.31607 7.44129 6 8.20435 6 9V23C6 23.7956 6.31607 24.5587 6.87868 25.1213C7.44129 25.6839 8.20435 26 9 26H23C23.7956 26 24.5587 25.6839 25.1213 25.1213C25.6839 24.5587 26 23.7956 26 23V15C26 14.7348 26.1054 14.4804 26.2929 14.2929C26.4804 14.1054 26.7348 14 27 14C27.2652 14 27.5196 14.1054 27.7071 14.2929C27.8946 14.4804 28 14.7348 28 15V23C28 24.3261 27.4732 25.5979 26.5355 26.5355C25.5979 27.4732 24.3261 28 23 28Z" fill="black"/>
<path d="M26.83 10.83L20.94 16.72C20.4751 17.1727 19.8811 17.4697 19.24 17.57L17.59 17.8C17.4435 17.8099 17.2965 17.8099 17.15 17.8C16.7181 17.8043 16.2903 17.7152 15.8959 17.5389C15.5016 17.3626 15.15 17.1032 14.8651 16.7785C14.5803 16.4537 14.3689 16.0713 14.2455 15.6574C14.1221 15.2434 14.0895 14.8077 14.15 14.38L14.39 12.73C14.4816 12.0862 14.7799 11.4896 15.24 11.03L21.13 5.14C21.5016 4.76836 21.9428 4.47356 22.4284 4.27242C22.914 4.07129 23.4344 3.96777 23.96 3.96777C24.4856 3.96777 25.006 4.07129 25.4916 4.27242C25.9771 4.47356 26.4183 4.76836 26.79 5.14C27.1616 5.51164 27.4564 5.95284 27.6576 6.43841C27.8587 6.92399 27.9622 7.44442 27.9622 7.97C27.9622 8.49558 27.8587 9.01601 27.6576 9.50158C27.4564 9.98716 27.1616 10.4284 26.79 10.8L26.83 10.83Z" fill="black"/>
</svg>
