<svg width="32" height="32" viewBox="0 0 32 32" fill="none" xmlns="http://www.w3.org/2000/svg">
<path d="M27 15V23C27 24.0609 26.5786 25.0783 25.8284 25.8284C25.0783 26.5786 24.0609 27 23 27H9C7.93913 27 6.92172 26.5786 6.17157 25.8284C5.42143 25.0783 5 24.0609 5 23V9C5 7.93913 5.42143 6.92172 6.17157 6.17157C6.92172 5.42143 7.93913 5 9 5H17" stroke="black" stroke-width="2" stroke-linecap="round" stroke-linejoin="round"/>
<path d="M19.1 16.58L17.45 16.82C17.1414 16.8654 16.8264 16.838 16.5303 16.74C16.2341 16.642 15.965 16.4761 15.7444 16.2555C15.5239 16.035 15.358 15.7658 15.2599 15.4697C15.1619 15.1736 15.1346 14.8586 15.18 14.55L15.42 12.9C15.4854 12.4703 15.689 12.0736 16 11.77L21.89 5.87998C22.4525 5.31818 23.215 5.00262 24.01 5.00262C24.805 5.00262 25.5675 5.31818 26.13 5.87998V5.87998C26.6918 6.44249 27.0074 7.20498 27.0074 7.99998C27.0074 8.79499 26.6918 9.55748 26.13 10.12L20.23 16C19.9264 16.311 19.5297 16.5146 19.1 16.58Z" stroke="black" stroke-width="2" stroke-linecap="round" stroke-linejoin="round"/>
</svg>
