<svg width="32" height="32" viewBox="0 0 32 32" fill="none" xmlns="http://www.w3.org/2000/svg">
<path d="M27 20C26.7348 20 26.4804 20.1054 26.2929 20.2929C26.1054 20.4804 26 20.7348 26 21V25C26 25.2652 25.8946 25.5196 25.7071 25.7071C25.5196 25.8946 25.2652 26 25 26H7C6.73478 26 6.48043 25.8946 6.29289 25.7071C6.10536 25.5196 6 25.2652 6 25V21C6 20.7348 5.89464 20.4804 5.70711 20.2929C5.51957 20.1054 5.26522 20 5 20C4.73478 20 4.48043 20.1054 4.29289 20.2929C4.10536 20.4804 4 20.7348 4 21V25C4 25.7956 4.31607 26.5587 4.87868 27.1213C5.44129 27.6839 6.20435 28 7 28H25C25.7956 28 26.5587 27.6839 27.1213 27.1213C27.6839 26.5587 28 25.7956 28 25V21C28 20.7348 27.8946 20.4804 27.7071 20.2929C27.5196 20.1054 27.2652 20 27 20Z" fill="black"/>
<path d="M13.88 21.12C14.4425 21.6818 15.205 21.9974 16 21.9974C16.795 21.9974 17.5575 21.6818 18.12 21.12L23.78 15.46C23.9662 15.2726 24.0708 15.0192 24.0708 14.755C24.0708 14.4908 23.9662 14.2374 23.78 14.05C23.687 13.9563 23.5764 13.8819 23.4546 13.8311C23.3327 13.7803 23.202 13.7542 23.07 13.7542C22.938 13.7542 22.8073 13.7803 22.6854 13.8311C22.5636 13.8819 22.453 13.9563 22.36 14.05L17 19.41V5C17 4.73478 16.8946 4.48043 16.7071 4.29289C16.5196 4.10536 16.2652 4 16 4C15.7348 4 15.4804 4.10536 15.2929 4.29289C15.1053 4.48043 15 4.73478 15 5V19.41L9.63999 14.05C9.54703 13.9563 9.43643 13.8819 9.31457 13.8311C9.19271 13.7803 9.062 13.7542 8.92999 13.7542C8.79798 13.7542 8.66727 13.7803 8.54542 13.8311C8.42356 13.8819 8.31296 13.9563 8.21999 14.05C8.03374 14.2374 7.9292 14.4908 7.9292 14.755C7.9292 15.0192 8.03374 15.2726 8.21999 15.46L13.88 21.12Z" fill="black"/>
</svg>
