<svg width="32" height="32" viewBox="0 0 32 32" fill="none" xmlns="http://www.w3.org/2000/svg">
<path d="M25.19 12.46L13.19 24.46C12.9139 24.7302 12.5674 24.9173 12.19 25L8.65 25.71C8.32772 25.7737 7.9947 25.7571 7.68037 25.6616C7.36605 25.566 7.0801 25.3945 6.8478 25.1622C6.61549 24.9299 6.44399 24.644 6.34845 24.3296C6.25291 24.0153 6.23627 23.6823 6.3 23.36L7 19.85C7.08268 19.4726 7.2698 19.1261 7.54 18.85L19.38 7.00001C19.7666 6.6039 20.2285 6.28912 20.7386 6.0742C21.2486 5.85928 21.7965 5.74857 22.35 5.74857C22.9035 5.74857 23.4514 5.85928 23.9615 6.0742C24.4715 6.28912 24.9334 6.6039 25.32 7.00001C26.009 7.75995 26.3796 8.75552 26.3554 9.78098C26.3312 10.8064 25.914 11.7834 25.19 12.51V12.46Z" stroke="black" stroke-width="2" stroke-linecap="round" stroke-linejoin="round"/>
</svg>
