<svg width="32" height="32" viewBox="0 0 32 32" fill="none" xmlns="http://www.w3.org/2000/svg">
<path d="M30 10C30 11.0609 29.5786 12.0783 28.8284 12.8284C28.0783 13.5786 27.0609 14 26 14C25.3473 14.001 24.7046 13.8395 24.13 13.53L18.35 19.83C18.7712 20.4756 18.997 21.2291 19 22C19 23.0609 18.5786 24.0783 17.8284 24.8284C17.0783 25.5786 16.0609 26 15 26C13.9391 26 12.9217 25.5786 12.1716 24.8284C11.4214 24.0783 11 23.0609 11 22C10.9987 21.455 11.1147 20.9162 11.34 20.42L8.44 18.17C7.74271 18.7124 6.88338 19.0047 6 19C5.20888 19 4.43552 18.7654 3.77772 18.3259C3.11992 17.8864 2.60723 17.2616 2.30448 16.5307C2.00173 15.7998 1.92252 14.9956 2.07686 14.2196C2.2312 13.4437 2.61216 12.731 3.17157 12.1716C3.73098 11.6122 4.44372 11.2312 5.21964 11.0769C5.99556 10.9225 6.79983 11.0017 7.53074 11.3045C8.26164 11.6072 8.88635 12.1199 9.32588 12.7777C9.76541 13.4355 10 14.2089 10 15C9.99851 15.5436 9.88622 16.0812 9.67 16.58L12.56 18.83C13.1693 18.3612 13.9009 18.0779 14.667 18.014C15.4332 17.9502 16.2015 18.1085 16.88 18.47L22.65 12.17C22.2288 11.5244 22.003 10.7709 22 10C22 8.93913 22.4214 7.92172 23.1716 7.17157C23.9217 6.42143 24.9391 6 26 6C27.0609 6 28.0783 6.42143 28.8284 7.17157C29.5786 7.92172 30 8.93913 30 10Z" fill="black"/>
</svg>
