<svg width="32" height="32" viewBox="0 0 32 32" fill="none" xmlns="http://www.w3.org/2000/svg">
<path d="M19 23C18.7348 23 18.4804 23.1054 18.2929 23.2929C18.1054 23.4804 18 23.7348 18 24V25C18 25.2652 17.8946 25.5196 17.7071 25.7071C17.5196 25.8946 17.2652 26 17 26H7C6.73478 26 6.48043 25.8946 6.29289 25.7071C6.10536 25.5196 6 25.2652 6 25V7C6 6.73478 6.10536 6.48043 6.29289 6.29289C6.48043 6.10536 6.73478 6 7 6H17C17.2652 6 17.5196 6.10536 17.7071 6.29289C17.8946 6.48043 18 6.73478 18 7V8C18 8.26522 18.1054 8.51957 18.2929 8.70711C18.4804 8.89464 18.7348 9 19 9C19.2652 9 19.5196 8.89464 19.7071 8.70711C19.8946 8.51957 20 8.26522 20 8V7C20 6.20435 19.6839 5.44129 19.1213 4.87868C18.5587 4.31607 17.7956 4 17 4H7C6.20435 4 5.44129 4.31607 4.87868 4.87868C4.31607 5.44129 4 6.20435 4 7V25C4 25.7956 4.31607 26.5587 4.87868 27.1213C5.44129 27.6839 6.20435 28 7 28H17C17.7956 28 18.5587 27.6839 19.1213 27.1213C19.6839 26.5587 20 25.7956 20 25V24C20 23.7348 19.8946 23.4804 19.7071 23.2929C19.5196 23.1054 19.2652 23 19 23Z" fill="black"/>
<path d="M27.12 13.88L24.29 11.05C24.0987 10.8862 23.8526 10.8006 23.6009 10.8103C23.3493 10.82 23.1105 10.9243 22.9324 11.1024C22.7543 11.2805 22.65 11.5193 22.6403 11.7709C22.6306 12.0226 22.7162 12.2687 22.88 12.46L25.41 15H11C10.7348 15 10.4804 15.1054 10.2929 15.2929C10.1054 15.4804 10 15.7348 10 16C10 16.2652 10.1054 16.5196 10.2929 16.7071C10.4804 16.8946 10.7348 17 11 17H25.41L22.88 19.54C22.6937 19.7274 22.5892 19.9808 22.5892 20.245C22.5892 20.5092 22.6937 20.7626 22.88 20.95C23.0674 21.1362 23.3208 21.2408 23.585 21.2408C23.8492 21.2408 24.1026 21.1362 24.29 20.95L27.12 18.12C27.6818 17.5575 27.9974 16.795 27.9974 16C27.9974 15.205 27.6818 14.4425 27.12 13.88Z" fill="black"/>
</svg>
