<svg width="20" height="20" viewBox="0 0 20 20" fill="none" xmlns="http://www.w3.org/2000/svg">
<path fill-rule="evenodd" clip-rule="evenodd" d="M8.33325 9.99998C8.33325 9.0795 9.07944 8.33331 9.99992 8.33331C10.9204 8.33331 11.6666 9.0795 11.6666 9.99998C11.6666 10.9205 10.9204 11.6666 9.99992 11.6666C9.07944 11.6666 8.33325 10.9205 8.33325 9.99998Z" fill="#161719"/>
<path fill-rule="evenodd" clip-rule="evenodd" d="M14.1667 9.99998C14.1667 9.0795 14.9129 8.33331 15.8334 8.33331C16.7539 8.33331 17.5001 9.0795 17.5001 9.99998C17.5001 10.9205 16.7539 11.6666 15.8334 11.6666C14.9129 11.6666 14.1667 10.9205 14.1667 9.99998Z" fill="#161719"/>
<path fill-rule="evenodd" clip-rule="evenodd" d="M2.5 9.99998C2.5 9.0795 3.24619 8.33331 4.16667 8.33331C5.08714 8.33331 5.83333 9.0795 5.83333 9.99998C5.83333 10.9205 5.08714 11.6666 4.16667 11.6666C3.24619 11.6666 2.5 10.9205 2.5 9.99998Z" fill="#161719"/>
</svg>
