<svg width="32" height="32" viewBox="0 0 32 32" fill="none" xmlns="http://www.w3.org/2000/svg">
<path d="M27 14C26.7348 14 26.4804 14.1054 26.2929 14.2929C26.1054 14.4804 26 14.7348 26 15V23C26 23.7956 25.6839 24.5587 25.1213 25.1213C24.5587 25.6839 23.7956 26 23 26H9C8.20435 26 7.44129 25.6839 6.87868 25.1213C6.31607 24.5587 6 23.7956 6 23V9C6 8.20435 6.31607 7.44129 6.87868 6.87868C7.44129 6.31607 8.20435 6 9 6H17C17.2652 6 17.5196 5.89464 17.7071 5.70711C17.8946 5.51957 18 5.26522 18 5C18 4.73478 17.8946 4.48043 17.7071 4.29289C17.5196 4.10536 17.2652 4 17 4H9C7.67392 4 6.40215 4.52678 5.46447 5.46447C4.52678 6.40215 4 7.67392 4 9V23C4 24.3261 4.52678 25.5979 5.46447 26.5355C6.40215 27.4732 7.67392 28 9 28H23C24.3261 28 25.5979 27.4732 26.5355 26.5355C27.4732 25.5979 28 24.3261 28 23V15C28 14.7348 27.8946 14.4804 27.7071 14.2929C27.5196 14.1054 27.2652 14 27 14Z" fill="black"/>
<path d="M14.43 12.76L14.19 14.41C14.112 14.875 14.1447 15.3518 14.2854 15.8018C14.4262 16.2518 14.671 16.6623 15 17C15.5621 17.5628 16.3247 17.8793 17.12 17.88H17.55L19.2 17.64C19.8438 17.5484 20.4405 17.2501 20.9 16.79L26.79 10.9C27.1619 10.5285 27.457 10.0873 27.6583 9.60176C27.8596 9.11616 27.9632 8.59566 27.9632 8.06999C27.9632 7.54433 27.8596 7.02383 27.6583 6.53823C27.457 6.05264 27.1619 5.61149 26.79 5.23999C26.0274 4.51252 25.014 4.10666 23.96 4.10666C22.9061 4.10666 21.8926 4.51252 21.13 5.23999L15.24 11.13C14.8077 11.5763 14.5247 12.1459 14.43 12.76Z" fill="black"/>
</svg>
