<svg width="32" height="32" viewBox="0 0 32 32" fill="none" xmlns="http://www.w3.org/2000/svg">
<path d="M29 25C28.7348 25 28.4804 25.1054 28.2929 25.2929C28.1054 25.4804 28 25.7348 28 26C27.9986 26.3507 27.905 26.6949 27.7286 26.9981C27.5521 27.3012 27.2991 27.5526 26.9948 27.7271C26.6906 27.9015 26.3458 27.9929 25.995 27.992C25.6443 27.9912 25.3 27.8981 24.9966 27.7221C24.6932 27.5461 24.4414 27.2935 24.2665 26.9895C24.0916 26.6855 23.9997 26.3408 24 25.9901C24.0004 25.6393 24.0929 25.2949 24.2685 24.9912C24.444 24.6875 24.6963 24.4354 25 24.26C24.9719 24.4653 25.0083 24.6743 25.1042 24.858C25.2001 25.0418 25.3506 25.1912 25.5351 25.2856C25.7196 25.38 25.9288 25.4148 26.1339 25.3852C26.339 25.3555 26.5298 25.2628 26.68 25.12L28.09 23.71C28.1837 23.617 28.2581 23.5064 28.3089 23.3846C28.3597 23.2627 28.3858 23.132 28.3858 23C28.3858 22.868 28.3597 22.7373 28.3089 22.6154C28.2581 22.4936 28.1837 22.383 28.09 22.29L26.68 20.88C26.587 20.7863 26.4764 20.7119 26.3546 20.6611C26.2327 20.6104 26.102 20.5842 25.97 20.5842C25.838 20.5842 25.7073 20.6104 25.5854 20.6611C25.4636 20.7119 25.353 20.7863 25.26 20.88C25.1082 21.0393 25.0132 21.2442 24.9897 21.463C24.9662 21.6817 25.0155 21.9021 25.13 22.09C24.3945 22.2539 23.7202 22.6223 23.1848 23.1526C22.6495 23.683 22.2749 24.3538 22.1041 25.0877C21.9333 25.8217 21.9733 26.589 22.2195 27.3012C22.4657 28.0134 22.9081 28.6416 23.4958 29.1133C24.0834 29.5851 24.7923 29.8813 25.5409 29.9678C26.2895 30.0543 27.0473 29.9276 27.727 29.6022C28.4067 29.2769 28.9807 28.7661 29.3828 28.1288C29.785 27.4915 29.9989 26.7536 30 26C30 25.7348 29.8946 25.4804 29.7071 25.2929C29.5196 25.1054 29.2652 25 29 25Z" fill="black"/>
<path d="M24.58 5.53001C24.1448 5.26116 23.648 5.10809 23.1369 5.08534C22.6258 5.06259 22.1174 5.17091 21.66 5.40001L21.36 5.55001C21.2311 5.60796 21.0913 5.63792 20.95 5.63792C20.8087 5.63792 20.6689 5.60796 20.54 5.55001L17.11 4.21001C16.3972 3.92613 15.6028 3.92613 14.89 4.21001L11.46 5.58001C11.3311 5.63796 11.1913 5.66792 11.05 5.66792C10.9087 5.66792 10.7689 5.63796 10.64 5.58001L10.34 5.43001C9.88519 5.20291 9.38014 5.09511 8.87224 5.11672C8.36435 5.13834 7.87028 5.28866 7.43641 5.55358C7.00254 5.8185 6.64311 6.18933 6.39186 6.63125C6.1406 7.07317 6.00576 7.57169 6 8.08001V23C6 24.3261 6.52678 25.5979 7.46447 26.5355C8.40215 27.4732 9.67392 28 11 28H20.38C20.136 27.3611 20.0073 26.6839 20 26V25.92C20.0016 24.843 20.2931 23.7864 20.8438 22.8609C21.3946 21.9354 22.1842 21.1752 23.13 20.66C23.2689 20.1773 23.5268 19.7372 23.88 19.38L24 19.27C24.1894 19.1032 24.3974 18.9589 24.62 18.84C24.9872 18.6535 25.3889 18.5445 25.8 18.52H26V8.08001C26 7.56923 25.8695 7.06692 25.621 6.62067C25.3725 6.17443 25.0142 5.79901 24.58 5.53001ZM18 21H12C11.7348 21 11.4804 20.8946 11.2929 20.7071C11.1054 20.5196 11 20.2652 11 20C11 19.7348 11.1054 19.4804 11.2929 19.2929C11.4804 19.1054 11.7348 19 12 19H18C18.2652 19 18.5196 19.1054 18.7071 19.2929C18.8946 19.4804 19 19.7348 19 20C19 20.2652 18.8946 20.5196 18.7071 20.7071C18.5196 20.8946 18.2652 21 18 21ZM20 15H12C11.7348 15 11.4804 14.8946 11.2929 14.7071C11.1054 14.5196 11 14.2652 11 14C11 13.7348 11.1054 13.4804 11.2929 13.2929C11.4804 13.1054 11.7348 13 12 13H20C20.2652 13 20.5196 13.1054 20.7071 13.2929C20.8946 13.4804 21 13.7348 21 14C21 14.2652 20.8946 14.5196 20.7071 14.7071C20.5196 14.8946 20.2652 15 20 15Z" fill="black"/>
</svg>
