<svg width="32" height="32" viewBox="0 0 32 32" fill="none" xmlns="http://www.w3.org/2000/svg">
<path d="M23.07 13.94C22.3883 13.2497 21.6061 12.6664 20.75 12.21C20.5261 12.0848 20.2958 11.9713 20.06 11.87C19.5847 11.6551 19.0931 11.4778 18.59 11.34L18.11 11.23C17.76 11.16 17.42 11.11 17.11 11.07H16.64H16.4C16.1437 11.0502 15.8863 11.0502 15.63 11.07H15.41H15.04H14.9C14.5638 11.0989 14.2298 11.149 13.9 11.22L13.43 11.33C12.9312 11.4673 12.4433 11.6411 11.97 11.85C11.73 11.96 11.49 12.07 11.27 12.19C9.67731 13.0451 8.34618 14.3158 7.4182 15.8672C6.49023 17.4185 6.00011 19.1923 6 21V24C6 25.3261 6.52678 26.5979 7.46447 27.5356C8.40215 28.4732 9.67392 29 11 29H21C22.3261 29 23.5979 28.4732 24.5355 27.5356C25.4732 26.5979 26 25.3261 26 24V21C26.0061 19.6874 25.7501 18.3869 25.247 17.1745C24.7438 15.9622 24.0037 14.8625 23.07 13.94ZM15.5 19H16.5C17.163 18.9337 17.8253 19.1335 18.341 19.5555C18.8567 19.9774 19.1837 20.587 19.25 21.25C19.3163 21.9131 19.1165 22.5753 18.6945 23.091C18.2726 23.6067 17.663 23.9337 17 24C17 24.2652 16.8946 24.5196 16.7071 24.7071C16.5196 24.8947 16.2652 25 16 25C15.7348 25 15.4804 24.8947 15.2929 24.7071C15.1054 24.5196 15 24.2652 15 24H14C13.7348 24 13.4804 23.8947 13.2929 23.7071C13.1054 23.5196 13 23.2652 13 23C13 22.7348 13.1054 22.4804 13.2929 22.2929C13.4804 22.1054 13.7348 22 14 22H16.5C16.6326 22 16.7598 21.9473 16.8536 21.8536C16.9473 21.7598 17 21.6326 17 21.5C17 21.3674 16.9473 21.2402 16.8536 21.1465C16.7598 21.0527 16.6326 21 16.5 21H15.5C14.88 21.0006 14.2819 20.7709 13.8218 20.3553C13.3617 19.9398 13.0725 19.3681 13.0101 18.7513C12.9478 18.1344 13.117 17.5164 13.4847 17.0173C13.8524 16.5181 14.3924 16.1734 15 16.05V16C15 15.7348 15.1054 15.4805 15.2929 15.2929C15.4804 15.1054 15.7348 15 16 15C16.2652 15 16.5196 15.1054 16.7071 15.2929C16.8946 15.4805 17 15.7348 17 16H18C18.2652 16 18.5196 16.1054 18.7071 16.2929C18.8946 16.4804 19 16.7348 19 17C19 17.2652 18.8946 17.5196 18.7071 17.7071C18.5196 17.8947 18.2652 18 18 18H15.5C15.3674 18 15.2402 18.0527 15.1464 18.1465C15.0527 18.2402 15 18.3674 15 18.5C15 18.6326 15.0527 18.7598 15.1464 18.8536C15.2402 18.9473 15.3674 19 15.5 19Z" fill="black"/>
<path d="M21.46 7.61001L21.07 10.13L20.88 10C20.3243 9.74747 19.7491 9.54013 19.16 9.38001C18.128 9.11465 17.0655 8.98687 16 9.00001C14.933 9.00347 13.8709 9.14464 12.84 9.42001C12.2584 9.58301 11.69 9.79028 11.14 10.04L10.93 10.14L10.54 7.61001C10.4598 7.08716 10.5193 6.5524 10.7124 6.05995C10.9056 5.5675 11.2255 5.13487 11.6397 4.80591C12.0539 4.47696 12.5478 4.26338 13.0712 4.18683C13.5946 4.11027 14.1289 4.17347 14.62 4.37001L15.62 4.77001C15.8576 4.86464 16.1224 4.86464 16.36 4.77001L17.36 4.37001C17.8511 4.17347 18.3854 4.11027 18.9088 4.18683C19.4322 4.26338 19.9261 4.47696 20.3403 4.80591C20.7546 5.13487 21.0745 5.5675 21.2676 6.05995C21.4607 6.5524 21.5202 7.08716 21.44 7.61001H21.46Z" fill="black"/>
</svg>
