<svg width="32" height="32" viewBox="0 0 32 32" fill="none" xmlns="http://www.w3.org/2000/svg">
<path d="M25.61 24.19L22 20.62C23.4419 18.8251 24.1411 16.5458 23.9537 14.2511C23.7663 11.9563 22.7066 9.8207 20.9926 8.28347C19.2786 6.74624 17.0406 5.92435 14.7391 5.98687C12.4376 6.0494 10.2476 6.99158 8.61956 8.61959C6.99155 10.2476 6.04937 12.4376 5.98684 14.7392C5.92432 17.0407 6.74621 19.2786 8.28344 20.9926C9.82067 22.7066 11.9563 23.7663 14.251 23.9537C16.5458 24.1411 18.825 23.4419 20.62 22L24.19 25.58C24.2829 25.6737 24.3935 25.7481 24.5154 25.7989C24.6372 25.8497 24.768 25.8758 24.9 25.8758C25.032 25.8758 25.1627 25.8497 25.2845 25.7989C25.4064 25.7481 25.517 25.6737 25.61 25.58C25.7902 25.3935 25.891 25.1443 25.891 24.885C25.891 24.6257 25.7902 24.3765 25.61 24.19ZM10.05 20C9.07817 19.0182 8.41859 17.7708 8.15428 16.4149C7.88998 15.059 8.03277 13.6552 8.56468 12.3803C9.09659 11.1054 9.99383 10.0164 11.1434 9.25038C12.293 8.48437 13.6435 8.07563 15.025 8.07563C16.4064 8.07563 17.7569 8.48437 18.9065 9.25038C20.0561 10.0164 20.9533 11.1054 21.4853 12.3803C22.0172 13.6552 22.16 15.059 21.8957 16.4149C21.6314 17.7708 20.9718 19.0182 20 20C19.3491 20.6576 18.5742 21.1796 17.7203 21.5359C16.8663 21.8922 15.9502 22.0756 15.025 22.0756C14.0997 22.0756 13.1836 21.8922 12.3297 21.5359C11.4757 21.1796 10.7009 20.6576 10.05 20Z" fill="black"/>
</svg>
