<svg width="32" height="32" viewBox="0 0 32 32" fill="none" xmlns="http://www.w3.org/2000/svg">
<path d="M16 18C17.1046 18 18 17.1046 18 16C18 14.8954 17.1046 14 16 14C14.8954 14 14 14.8954 14 16C14 17.1046 14.8954 18 16 18Z" fill="black"/>
<path d="M25.79 17L25.41 16.77C25.269 16.687 25.1521 16.5686 25.0709 16.4265C24.9897 16.2844 24.947 16.1236 24.947 15.96C24.947 15.7964 24.9897 15.6356 25.0709 15.4935C25.1521 15.3514 25.269 15.233 25.41 15.15L25.79 14.92C26.4772 14.5225 26.9788 13.8689 27.185 13.1023C27.3912 12.3356 27.2851 11.5186 26.89 10.83L25.89 9.09C25.4908 8.4018 24.8346 7.90034 24.0657 7.69593C23.2969 7.49151 22.4783 7.60089 21.79 8L21.47 8.18C21.3223 8.25909 21.157 8.29977 20.9894 8.29831C20.8218 8.29685 20.6573 8.2533 20.511 8.17166C20.3646 8.09002 20.2411 7.97291 20.1518 7.83108C20.0625 7.68926 20.0103 7.52727 20 7.36V7C20 6.20435 19.6839 5.44129 19.1213 4.87868C18.5587 4.31607 17.7957 4 17 4H15C14.2044 4 13.4413 4.31607 12.8787 4.87868C12.3161 5.44129 12 6.20435 12 7V7.36C11.9971 7.53212 11.9497 7.70057 11.8626 7.84903C11.7754 7.99749 11.6514 8.12095 11.5026 8.20744C11.3537 8.29393 11.1851 8.34053 11.0129 8.34273C10.8408 8.34493 10.671 8.30266 10.52 8.22L10.21 8C9.52177 7.60089 8.70317 7.49151 7.93428 7.69593C7.1654 7.90034 6.50919 8.4018 6.11001 9.09L5.11001 10.83C4.90172 11.1743 4.76481 11.5569 4.70742 11.9552C4.65004 12.3534 4.67336 12.7591 4.77599 13.1482C4.87861 13.5373 5.05846 13.9017 5.30482 14.2198C5.55118 14.538 5.85902 14.8033 6.21001 15L6.59001 15.23C6.73102 15.313 6.84791 15.4314 6.92912 15.5735C7.01033 15.7156 7.05304 15.8764 7.05304 16.04C7.05304 16.2036 7.01033 16.3644 6.92912 16.5065C6.84791 16.6486 6.73102 16.767 6.59001 16.85L6.21001 17C5.52282 17.3975 5.02119 18.0511 4.81501 18.8177C4.60882 19.5844 4.71491 20.4014 5.11001 21.09L6.11001 22.83C6.30095 23.1775 6.55886 23.4837 6.86885 23.7308C7.17883 23.978 7.53474 24.1613 7.91599 24.2701C8.29725 24.3789 8.69629 24.4111 9.09004 24.3647C9.4838 24.3183 9.86446 24.1944 10.21 24L10.52 23.83C10.672 23.7422 10.8445 23.696 11.02 23.696C11.1956 23.696 11.368 23.7422 11.52 23.83C11.6664 23.9168 11.7883 24.0394 11.874 24.1864C11.9597 24.3334 12.0066 24.4999 12.01 24.67V25C12.01 25.7956 12.3261 26.5587 12.8887 27.1213C13.4513 27.6839 14.2144 28 15.01 28H17.01C17.8057 28 18.5687 27.6839 19.1313 27.1213C19.6939 26.5587 20.01 25.7956 20.01 25V24.63C20.0145 24.4589 20.0628 24.2918 20.1504 24.1447C20.2379 23.9977 20.3618 23.8755 20.51 23.79C20.662 23.7022 20.8345 23.656 21.01 23.656C21.1856 23.656 21.358 23.7022 21.51 23.79L21.82 23.97C22.5083 24.3691 23.3269 24.4785 24.0957 24.2741C24.8646 24.0697 25.5208 23.5682 25.92 22.88L26.92 21.14C27.1223 20.7951 27.2536 20.4133 27.3063 20.017C27.3589 19.6207 27.3318 19.2178 27.2265 18.8321C27.1212 18.4464 26.9399 18.0857 26.6932 17.771C26.4465 17.4564 26.1395 17.1943 25.79 17ZM16 20C15.2089 20 14.4355 19.7654 13.7777 19.3259C13.1199 18.8864 12.6072 18.2616 12.3045 17.5307C12.0017 16.7998 11.9225 15.9956 12.0769 15.2196C12.2312 14.4437 12.6122 13.731 13.1716 13.1716C13.731 12.6122 14.4437 12.2312 15.2197 12.0769C15.9956 11.9225 16.7998 12.0017 17.5307 12.3045C18.2617 12.6072 18.8864 13.1199 19.3259 13.7777C19.7654 14.4355 20 15.2089 20 16C20 17.0609 19.5786 18.0783 18.8284 18.8284C18.0783 19.5786 17.0609 20 16 20Z" fill="black"/>
</svg>
