<svg width="32" height="32" viewBox="0 0 32 32" fill="none" xmlns="http://www.w3.org/2000/svg">
<path d="M27 9H15C14.7348 9 14.4804 8.89464 14.2929 8.70711C14.1054 8.51957 14 8.26522 14 8C14 7.73478 14.1054 7.48043 14.2929 7.29289C14.4804 7.10536 14.7348 7 15 7H27C27.2652 7 27.5196 7.10536 27.7071 7.29289C27.8946 7.48043 28 7.73478 28 8C28 8.26522 27.8946 8.51957 27.7071 8.70711C27.5196 8.89464 27.2652 9 27 9Z" fill="black"/>
<path d="M21 17H15C14.7348 17 14.4804 16.8946 14.2929 16.7071C14.1054 16.5196 14 16.2652 14 16C14 15.7348 14.1054 15.4804 14.2929 15.2929C14.4804 15.1054 14.7348 15 15 15H21C21.2652 15 21.5196 15.1054 21.7071 15.2929C21.8946 15.4804 22 15.7348 22 16C22 16.2652 21.8946 16.5196 21.7071 16.7071C21.5196 16.8946 21.2652 17 21 17Z" fill="black"/>
<path d="M17 25H15C14.7348 25 14.4804 24.8946 14.2929 24.7071C14.1054 24.5196 14 24.2652 14 24C14 23.7348 14.1054 23.4804 14.2929 23.2929C14.4804 23.1054 14.7348 23 15 23H17C17.2652 23 17.5196 23.1054 17.7071 23.2929C17.8946 23.4804 18 23.7348 18 24C18 24.2652 17.8946 24.5196 17.7071 24.7071C17.5196 24.8946 17.2652 25 17 25Z" fill="black"/>
<path d="M11 7C10.7348 7 10.4804 7.10536 10.2929 7.29289C10.1054 7.48043 10 7.73478 10 8V22.45L5.71 18.15C5.5217 17.9617 5.2663 17.8559 5 17.8559C4.7337 17.8559 4.47831 17.9617 4.29 18.15C4.1017 18.3383 3.99591 18.5937 3.99591 18.86C3.99591 19.1263 4.1017 19.3817 4.29 19.57L8.88 24.16C9.44856 24.7081 10.2103 25.01 11 25C11.2652 25 11.5196 24.8946 11.7071 24.7071C11.8946 24.5196 12 24.2652 12 24V8C12 7.73478 11.8946 7.48043 11.7071 7.29289C11.5196 7.10536 11.2652 7 11 7Z" fill="black"/>
</svg>
