<svg width="32" height="32" viewBox="0 0 32 32" fill="none" xmlns="http://www.w3.org/2000/svg">
<path d="M16 4C13.6266 4 11.3066 4.70379 9.33316 6.02236C7.35977 7.34094 5.8217 9.21509 4.91345 11.4078C4.0052 13.6005 3.76756 16.0133 4.23058 18.3411C4.6936 20.6689 5.83649 22.8071 7.51472 24.4853C9.19295 26.1635 11.3312 27.3064 13.6589 27.7694C15.9867 28.2324 18.3995 27.9948 20.5922 27.0866C22.7849 26.1783 24.6591 24.6402 25.9776 22.6668C27.2962 20.6935 28 18.3734 28 16C28 12.8174 26.7357 9.76515 24.4853 7.51472C22.2348 5.26428 19.1826 4 16 4ZM15 11C15 10.7348 15.1054 10.4804 15.2929 10.2929C15.4804 10.1054 15.7348 10 16 10C16.2652 10 16.5196 10.1054 16.7071 10.2929C16.8946 10.4804 17 10.7348 17 11V17C17 17.2652 16.8946 17.5196 16.7071 17.7071C16.5196 17.8946 16.2652 18 16 18C15.7348 18 15.4804 17.8946 15.2929 17.7071C15.1054 17.5196 15 17.2652 15 17V11ZM16 22C15.8022 22 15.6089 21.9414 15.4444 21.8315C15.28 21.7216 15.1518 21.5654 15.0761 21.3827C15.0004 21.2 14.9806 20.9989 15.0192 20.8049C15.0578 20.6109 15.153 20.4327 15.2929 20.2929C15.4328 20.153 15.6109 20.0578 15.8049 20.0192C15.9989 19.9806 16.2 20.0004 16.3827 20.0761C16.5654 20.1518 16.7216 20.28 16.8315 20.4444C16.9414 20.6089 17 20.8022 17 21C17 21.2652 16.8946 21.5196 16.7071 21.7071C16.5196 21.8946 16.2652 22 16 22Z" fill="black"/>
</svg>
